<svg width="1440" height="1453" viewBox="0 0 1440 1453" fill="none" xmlns="http://www.w3.org/2000/svg">
<g opacity="0.03">
<path d="M505.778 328.743L537.37 299.921L508.205 248.056L560.204 216.247M382.093 642.698L332.454 601.346L422.089 594.685L382.093 642.698ZM406.005 513.052L445.46 479.753L400.032 480.508L406.005 513.052ZM494.416 488.83L486.134 430.927L538.14 436.342L494.416 488.83Z" stroke="#005479" stroke-width="10.5913" stroke-linecap="round" stroke-linejoin="round"/>
<path d="M265.131 266.815L350.163 300.43L346.009 201.166L265.131 266.815Z" stroke="#005479" stroke-width="10.5913" stroke-linecap="round" stroke-linejoin="round"/>
<path d="M174.443 451.8L264.217 459.039L223.378 345.068L174.443 451.8Z" stroke="#FFBA2C" stroke-width="10.5913" stroke-linecap="round" stroke-linejoin="round"/>
<path d="M30.8114 323.88L115.443 394.381L130.075 319.726L30.8114 323.88Z" stroke="#005479" stroke-width="10.5913" stroke-linecap="round" stroke-linejoin="round"/>
<path d="M264.735 324.38L222.081 297.809" stroke="#FFBA2C" stroke-width="10.5913" stroke-linecap="round" stroke-linejoin="round"/>
<path fill-rule="evenodd" clip-rule="evenodd" d="M406.027 433.159C407.2 435.838 405.979 438.961 403.3 440.134C400.62 441.307 397.498 440.085 396.325 437.406L385.333 412.293L355.225 424.983C352.53 426.119 349.424 424.855 348.288 422.16C347.153 419.465 348.416 416.359 351.112 415.223L381.085 402.59L368.31 373.404C367.138 370.725 368.359 367.602 371.038 366.43C373.717 365.257 376.84 366.478 378.013 369.157L390.846 398.476L430.775 381.646C433.47 380.51 436.576 381.774 437.712 384.469C438.848 387.164 437.584 390.27 434.889 391.406L395.093 408.179L406.027 433.159Z" fill="#005479"/>
<ellipse cx="27.5374" cy="30.1852" rx="27.5374" ry="30.1852" transform="matrix(0.640045 -0.768338 -0.768338 -0.640045 175.428 272.73)" stroke="#FFBA2C" stroke-width="10.5913" stroke-linecap="round" stroke-linejoin="round"/>
<ellipse cx="34.9513" cy="33.8921" rx="34.9513" ry="33.8921" transform="matrix(0.640045 -0.768338 -0.768338 -0.640045 315.296 586.365)" stroke="#FFBA2C" stroke-width="10.5913" stroke-linecap="round" stroke-linejoin="round"/>
<ellipse cx="34.9513" cy="37.5991" rx="34.9513" ry="37.5991" transform="matrix(0.640045 -0.768338 -0.768338 -0.640045 438.111 333.027)" stroke="#FFBA2C" stroke-width="10.5913" stroke-linecap="round" stroke-linejoin="round"/>
<path d="M977.091 334.166L1008.68 305.343L979.517 253.479L1031.52 221.669M853.406 648.12L803.766 606.768L893.402 600.107L853.406 648.12ZM877.317 518.474L916.773 485.176L871.345 485.93L877.317 518.474ZM965.729 494.252L957.447 436.349L1009.45 441.764L965.729 494.252Z" stroke="#005479" stroke-width="10.5913" stroke-linecap="round" stroke-linejoin="round"/>
<path d="M736.444 272.237L821.476 305.852L817.322 206.588L736.444 272.237Z" stroke="#005479" stroke-width="10.5913" stroke-linecap="round" stroke-linejoin="round"/>
<path d="M645.756 457.222L735.53 464.461L694.691 350.49L645.756 457.222Z" stroke="#FFBA2C" stroke-width="10.5913" stroke-linecap="round" stroke-linejoin="round"/>
<path d="M545.379 354.734L595.959 396.868L604.704 352.251L545.379 354.734Z" stroke="#005479" stroke-width="10.5913" stroke-linecap="round" stroke-linejoin="round"/>
<path d="M736.047 329.803L693.394 303.231" stroke="#FFBA2C" stroke-width="10.5913" stroke-linecap="round" stroke-linejoin="round"/>
<path fill-rule="evenodd" clip-rule="evenodd" d="M877.34 438.58C878.513 441.26 877.292 444.382 874.612 445.555C871.933 446.728 868.81 445.507 867.638 442.827L856.645 417.715L826.538 430.405C823.843 431.54 820.737 430.277 819.601 427.581C818.466 424.886 819.729 421.781 822.425 420.645L852.398 408.011L839.623 378.826C838.45 376.146 839.672 373.024 842.351 371.851C845.03 370.678 848.153 371.9 849.326 374.579L862.159 403.897L902.088 387.067C904.783 385.931 907.889 387.195 909.025 389.89C910.161 392.586 908.897 395.691 906.202 396.827L866.406 413.601L877.34 438.58Z" fill="#005479"/>
<ellipse cx="27.5374" cy="30.1852" rx="27.5374" ry="30.1852" transform="matrix(0.640045 -0.768338 -0.768338 -0.640045 646.74 278.152)" stroke="#FFBA2C" stroke-width="10.5913" stroke-linecap="round" stroke-linejoin="round"/>
<ellipse cx="34.9513" cy="33.8921" rx="34.9513" ry="33.8921" transform="matrix(0.640045 -0.768338 -0.768338 -0.640045 786.609 591.787)" stroke="#FFBA2C" stroke-width="10.5913" stroke-linecap="round" stroke-linejoin="round"/>
<ellipse cx="34.9513" cy="37.5991" rx="34.9513" ry="37.5991" transform="matrix(0.640045 -0.768338 -0.768338 -0.640045 909.424 338.45)" stroke="#FFBA2C" stroke-width="10.5913" stroke-linecap="round" stroke-linejoin="round"/>
<path d="M1431.46 350.053L1463.05 321.23L1433.88 269.366L1485.88 237.556M1307.77 664.007L1258.13 622.656L1347.77 615.995L1307.77 664.007ZM1331.68 534.362L1371.14 501.063L1325.71 501.817L1331.68 534.362ZM1420.1 510.14L1411.81 452.237L1463.82 457.652L1420.1 510.14Z" stroke="#005479" stroke-width="10.5913" stroke-linecap="round" stroke-linejoin="round"/>
<path d="M1190.81 288.124L1275.84 321.739L1271.69 222.475L1190.81 288.124Z" stroke="#005479" stroke-width="10.5913" stroke-linecap="round" stroke-linejoin="round"/>
<path d="M1100.12 473.109L1189.9 480.348L1149.06 366.377L1100.12 473.109Z" stroke="#FFBA2C" stroke-width="10.5913" stroke-linecap="round" stroke-linejoin="round"/>
<path d="M1020.93 338.419L1105.56 408.919L1120.19 334.264L1020.93 338.419Z" stroke="#005479" stroke-width="10.5913" stroke-linecap="round" stroke-linejoin="round"/>
<path d="M1190.41 345.689L1147.76 319.118" stroke="#FFBA2C" stroke-width="10.5913" stroke-linecap="round" stroke-linejoin="round"/>
<path fill-rule="evenodd" clip-rule="evenodd" d="M1331.71 454.468C1332.88 457.148 1331.66 460.27 1328.98 461.443C1326.3 462.616 1323.18 461.395 1322 458.715L1311.01 433.602L1280.9 446.292C1278.21 447.428 1275.1 446.164 1273.97 443.469C1272.83 440.774 1274.1 437.669 1276.79 436.533L1306.76 423.899L1293.99 394.714C1292.82 392.034 1294.04 388.912 1296.72 387.739C1299.4 386.566 1302.52 387.787 1303.69 390.467L1316.53 419.785L1356.45 402.955C1359.15 401.819 1362.26 403.083 1363.39 405.778C1364.53 408.473 1363.26 411.579 1360.57 412.715L1320.77 429.488L1331.71 454.468Z" fill="#005479"/>
<ellipse cx="27.5374" cy="30.1852" rx="27.5374" ry="30.1852" transform="matrix(0.640045 -0.768338 -0.768338 -0.640045 1101.11 294.039)" stroke="#FFBA2C" stroke-width="10.5913" stroke-linecap="round" stroke-linejoin="round"/>
<ellipse cx="34.9513" cy="33.8921" rx="34.9513" ry="33.8921" transform="matrix(0.640045 -0.768338 -0.768338 -0.640045 1240.98 607.674)" stroke="#FFBA2C" stroke-width="10.5913" stroke-linecap="round" stroke-linejoin="round"/>
<ellipse cx="34.9513" cy="37.5991" rx="34.9513" ry="37.5991" transform="matrix(0.640045 -0.768338 -0.768338 -0.640045 1363.79 354.337)" stroke="#FFBA2C" stroke-width="10.5913" stroke-linecap="round" stroke-linejoin="round"/>
<path d="M272.847 846.241L304.438 875.063L275.273 926.928L327.273 958.737M149.162 532.287L99.5218 573.638L189.157 580.299L149.162 532.287ZM173.073 661.932L212.529 695.231L167.1 694.477L173.073 661.932ZM261.485 686.154L253.202 744.057L305.209 738.642L261.485 686.154Z" stroke="#005479" stroke-width="10.5913" stroke-linecap="round" stroke-linejoin="round"/>
<path d="M32.1993 908.17L117.231 874.555L113.077 973.819L32.1993 908.17Z" stroke="#005479" stroke-width="10.5913" stroke-linecap="round" stroke-linejoin="round"/>
<path d="M-58.4882 723.185L31.2853 715.946L-9.55325 829.917L-58.4882 723.185Z" stroke="#FFBA2C" stroke-width="10.5913" stroke-linecap="round" stroke-linejoin="round"/>
<path d="M31.8031 850.604L-10.8503 877.176" stroke="#FFBA2C" stroke-width="10.5913" stroke-linecap="round" stroke-linejoin="round"/>
<path fill-rule="evenodd" clip-rule="evenodd" d="M173.096 741.826C174.269 739.146 173.047 736.024 170.368 734.851C167.689 733.678 164.566 734.899 163.393 737.579L152.401 762.691L122.294 750.001C119.599 748.866 116.493 750.129 115.357 752.825C114.221 755.52 115.485 758.625 118.18 759.761L148.154 772.395L135.379 801.58C134.206 804.26 135.427 807.382 138.106 808.555C140.786 809.728 143.908 808.507 145.081 805.827L157.914 776.509L197.843 793.339C200.539 794.475 203.644 793.211 204.78 790.516C205.916 787.82 204.652 784.715 201.957 783.579L162.162 766.805L173.096 741.826Z" fill="#005479"/>
<ellipse cx="78.6944" cy="637.166" rx="34.9513" ry="33.8921" transform="rotate(50.2048 78.6944 637.166)" stroke="#FFBA2C" stroke-width="10.5913" stroke-linecap="round" stroke-linejoin="round"/>
<ellipse cx="198.661" cy="892.877" rx="34.9513" ry="37.5991" transform="rotate(50.2048 198.661 892.877)" stroke="#FFBA2C" stroke-width="10.5913" stroke-linecap="round" stroke-linejoin="round"/>
<path d="M744.159 840.819L775.75 869.641L746.585 921.506L798.585 953.315M620.474 526.864L570.834 568.216L660.47 574.877L620.474 526.864ZM644.385 656.51L683.841 689.809L638.413 689.054L644.385 656.51ZM732.797 680.732L724.515 738.635L776.521 733.22L732.797 680.732Z" stroke="#005479" stroke-width="10.5913" stroke-linecap="round" stroke-linejoin="round"/>
<path d="M503.512 902.748L588.544 869.132L584.39 968.396L503.512 902.748Z" stroke="#005479" stroke-width="10.5913" stroke-linecap="round" stroke-linejoin="round"/>
<path d="M412.825 717.762L502.598 710.523L461.76 824.494L412.825 717.762Z" stroke="#FFBA2C" stroke-width="10.5913" stroke-linecap="round" stroke-linejoin="round"/>
<path d="M312.447 820.25L363.027 778.116L371.772 822.733L312.447 820.25Z" stroke="#005479" stroke-width="10.5913" stroke-linecap="round" stroke-linejoin="round"/>
<path d="M503.116 845.182L460.462 871.753" stroke="#FFBA2C" stroke-width="10.5913" stroke-linecap="round" stroke-linejoin="round"/>
<path fill-rule="evenodd" clip-rule="evenodd" d="M644.409 736.404C645.581 733.725 644.36 730.602 641.681 729.429C639.002 728.256 635.879 729.478 634.706 732.157L623.714 757.27L593.607 744.58C590.912 743.444 587.806 744.708 586.67 747.403C585.534 750.098 586.798 753.204 589.493 754.34L619.466 766.973L606.691 796.159C605.519 798.838 606.74 801.961 609.419 803.133C612.099 804.306 615.221 803.085 616.394 800.406L629.227 771.087L669.156 787.917C671.851 789.053 674.957 787.789 676.093 785.094C677.229 782.399 675.965 779.293 673.27 778.157L633.474 761.384L644.409 736.404Z" fill="#005479"/>
<ellipse cx="408.241" cy="937.31" rx="27.5374" ry="30.1852" transform="rotate(50.2048 408.241 937.31)" stroke="#FFBA2C" stroke-width="10.5913" stroke-linecap="round" stroke-linejoin="round"/>
<ellipse cx="550.007" cy="631.744" rx="34.9513" ry="33.8921" transform="rotate(50.2048 550.007 631.744)" stroke="#FFBA2C" stroke-width="10.5913" stroke-linecap="round" stroke-linejoin="round"/>
<ellipse cx="669.974" cy="887.454" rx="34.9513" ry="37.5991" transform="rotate(50.2048 669.974 887.454)" stroke="#FFBA2C" stroke-width="10.5913" stroke-linecap="round" stroke-linejoin="round"/>
<path d="M1198.53 824.932L1230.12 853.754L1200.95 905.619L1252.95 937.428M1074.84 510.977L1025.2 552.329L1114.84 558.99L1074.84 510.977ZM1098.75 640.623L1138.21 673.922L1092.78 673.167L1098.75 640.623ZM1187.16 664.845L1178.88 722.748L1230.89 717.333L1187.16 664.845Z" stroke="#005479" stroke-width="10.5913" stroke-linecap="round" stroke-linejoin="round"/>
<path d="M957.878 886.86L1042.91 853.245L1038.76 952.509L957.878 886.86Z" stroke="#005479" stroke-width="10.5913" stroke-linecap="round" stroke-linejoin="round"/>
<path d="M867.19 701.875L956.964 694.636L916.125 808.607L867.19 701.875Z" stroke="#FFBA2C" stroke-width="10.5913" stroke-linecap="round" stroke-linejoin="round"/>
<path d="M787.993 836.565L872.625 766.065L887.257 840.72L787.993 836.565Z" stroke="#005479" stroke-width="10.5913" stroke-linecap="round" stroke-linejoin="round"/>
<path d="M957.482 829.295L914.829 855.866" stroke="#FFBA2C" stroke-width="10.5913" stroke-linecap="round" stroke-linejoin="round"/>
<path fill-rule="evenodd" clip-rule="evenodd" d="M1098.77 720.516C1099.95 717.837 1098.73 714.714 1096.05 713.541C1093.37 712.368 1090.24 713.59 1089.07 716.269L1078.08 741.382L1047.97 728.692C1045.28 727.556 1042.17 728.82 1041.04 731.515C1039.9 734.21 1041.16 737.316 1043.86 738.452L1073.83 751.085L1061.06 780.271C1059.88 782.95 1061.11 786.073 1063.78 787.245C1066.46 788.418 1069.59 787.197 1070.76 784.518L1083.59 755.199L1123.52 772.029C1126.22 773.165 1129.32 771.901 1130.46 769.206C1131.59 766.511 1130.33 763.405 1127.64 762.269L1087.84 745.496L1098.77 720.516Z" fill="#005479"/>
<ellipse cx="862.607" cy="921.423" rx="27.5374" ry="30.1852" transform="rotate(50.2048 862.607 921.423)" stroke="#FFBA2C" stroke-width="10.5913" stroke-linecap="round" stroke-linejoin="round"/>
<ellipse cx="1004.37" cy="615.857" rx="34.9513" ry="33.8921" transform="rotate(50.2048 1004.37 615.857)" stroke="#FFBA2C" stroke-width="10.5913" stroke-linecap="round" stroke-linejoin="round"/>
<ellipse cx="1124.34" cy="871.567" rx="34.9513" ry="37.5991" transform="rotate(50.2048 1124.34 871.567)" stroke="#FFBA2C" stroke-width="10.5913" stroke-linecap="round" stroke-linejoin="round"/>
<path d="M382.407 1112.24L413.999 1083.42L384.834 1031.55L436.833 999.745M258.723 1426.2L209.083 1384.84L298.718 1378.18L258.723 1426.2ZM282.634 1296.55L322.089 1263.25L276.661 1264.01L282.634 1296.55ZM371.046 1272.33L362.763 1214.43L414.769 1219.84L371.046 1272.33Z" stroke="#005479" stroke-width="10.5913" stroke-linecap="round" stroke-linejoin="round"/>
<path d="M141.76 1050.31L226.792 1083.93L222.638 984.664L141.76 1050.31Z" stroke="#005479" stroke-width="10.5913" stroke-linecap="round" stroke-linejoin="round"/>
<path d="M51.0725 1235.3L140.846 1242.54L100.007 1128.57L51.0725 1235.3Z" stroke="#FFBA2C" stroke-width="10.5913" stroke-linecap="round" stroke-linejoin="round"/>
<path d="M-92.5592 1107.38L-7.92725 1177.88L6.70481 1103.22L-92.5592 1107.38Z" stroke="#005479" stroke-width="10.5913" stroke-linecap="round" stroke-linejoin="round"/>
<path d="M141.364 1107.88L98.7105 1081.31" stroke="#FFBA2C" stroke-width="10.5913" stroke-linecap="round" stroke-linejoin="round"/>
<path fill-rule="evenodd" clip-rule="evenodd" d="M282.657 1216.66C283.829 1219.34 282.608 1222.46 279.929 1223.63C277.25 1224.81 274.127 1223.58 272.954 1220.9L261.962 1195.79L231.855 1208.48C229.16 1209.62 226.054 1208.35 224.918 1205.66C223.782 1202.96 225.046 1199.86 227.741 1198.72L257.714 1186.09L244.939 1156.9C243.767 1154.22 244.988 1151.1 247.667 1149.93C250.347 1148.76 253.469 1149.98 254.642 1152.66L267.475 1181.97L307.404 1165.14C310.099 1164.01 313.205 1165.27 314.341 1167.97C315.477 1170.66 314.213 1173.77 311.518 1174.9L271.722 1191.68L282.657 1216.66Z" fill="#005479"/>
<ellipse cx="27.5374" cy="30.1852" rx="27.5374" ry="30.1852" transform="matrix(0.640045 -0.768338 -0.768338 -0.640045 52.057 1056.23)" stroke="#FFBA2C" stroke-width="10.5913" stroke-linecap="round" stroke-linejoin="round"/>
<ellipse cx="34.9513" cy="33.8921" rx="34.9513" ry="33.8921" transform="matrix(0.640045 -0.768338 -0.768338 -0.640045 191.925 1369.86)" stroke="#FFBA2C" stroke-width="10.5913" stroke-linecap="round" stroke-linejoin="round"/>
<ellipse cx="34.9513" cy="37.5991" rx="34.9513" ry="37.5991" transform="matrix(0.640045 -0.768338 -0.768338 -0.640045 314.74 1116.53)" stroke="#FFBA2C" stroke-width="10.5913" stroke-linecap="round" stroke-linejoin="round"/>
<path d="M853.72 1117.66L885.311 1088.84L856.146 1036.98L908.146 1005.17M730.035 1431.62L680.395 1390.27L770.031 1383.61L730.035 1431.62ZM753.946 1301.97L793.402 1268.67L747.974 1269.43L753.946 1301.97ZM842.358 1277.75L834.075 1219.85L886.082 1225.26L842.358 1277.75Z" stroke="#005479" stroke-width="10.5913" stroke-linecap="round" stroke-linejoin="round"/>
<path d="M613.073 1055.74L698.105 1089.35L693.951 990.086L613.073 1055.74Z" stroke="#005479" stroke-width="10.5913" stroke-linecap="round" stroke-linejoin="round"/>
<path d="M522.385 1240.72L612.159 1247.96L571.32 1133.99L522.385 1240.72Z" stroke="#FFBA2C" stroke-width="10.5913" stroke-linecap="round" stroke-linejoin="round"/>
<path d="M422.008 1138.23L472.588 1180.37L481.333 1135.75L422.008 1138.23Z" stroke="#005479" stroke-width="10.5913" stroke-linecap="round" stroke-linejoin="round"/>
<path d="M612.676 1113.3L570.023 1086.73" stroke="#FFBA2C" stroke-width="10.5913" stroke-linecap="round" stroke-linejoin="round"/>
<path fill-rule="evenodd" clip-rule="evenodd" d="M753.969 1222.08C755.142 1224.76 753.921 1227.88 751.242 1229.05C748.562 1230.23 745.44 1229 744.267 1226.33L733.275 1201.21L703.167 1213.9C700.472 1215.04 697.366 1213.77 696.23 1211.08C695.095 1208.38 696.358 1205.28 699.054 1204.14L729.027 1191.51L716.252 1162.32C715.08 1159.64 716.301 1156.52 718.98 1155.35C721.659 1154.18 724.782 1155.4 725.955 1158.08L738.788 1187.4L778.717 1170.57C781.412 1169.43 784.518 1170.69 785.654 1173.39C786.79 1176.08 785.526 1179.19 782.831 1180.33L743.035 1197.1L753.969 1222.08Z" fill="#005479"/>
<ellipse cx="27.5374" cy="30.1852" rx="27.5374" ry="30.1852" transform="matrix(0.640045 -0.768338 -0.768338 -0.640045 523.37 1061.65)" stroke="#FFBA2C" stroke-width="10.5913" stroke-linecap="round" stroke-linejoin="round"/>
<ellipse cx="34.9513" cy="33.8921" rx="34.9513" ry="33.8921" transform="matrix(0.640045 -0.768338 -0.768338 -0.640045 663.238 1375.29)" stroke="#FFBA2C" stroke-width="10.5913" stroke-linecap="round" stroke-linejoin="round"/>
<ellipse cx="34.9513" cy="37.5991" rx="34.9513" ry="37.5991" transform="matrix(0.640045 -0.768338 -0.768338 -0.640045 786.053 1121.95)" stroke="#FFBA2C" stroke-width="10.5913" stroke-linecap="round" stroke-linejoin="round"/>
<path d="M1308.09 1133.55L1339.68 1104.73L1310.51 1052.86L1362.51 1021.06M1184.4 1447.51L1134.76 1406.15L1224.4 1399.49L1184.4 1447.51ZM1208.31 1317.86L1247.77 1284.56L1202.34 1285.32L1208.31 1317.86ZM1296.72 1293.64L1288.44 1235.74L1340.45 1241.15L1296.72 1293.64Z" stroke="#005479" stroke-width="10.5913" stroke-linecap="round" stroke-linejoin="round"/>
<path d="M1067.44 1071.62L1152.47 1105.24L1148.32 1005.97L1067.44 1071.62Z" stroke="#005479" stroke-width="10.5913" stroke-linecap="round" stroke-linejoin="round"/>
<path d="M976.752 1256.61L1066.53 1263.85L1025.69 1149.88L976.752 1256.61Z" stroke="#FFBA2C" stroke-width="10.5913" stroke-linecap="round" stroke-linejoin="round"/>
<path d="M897.555 1121.92L982.187 1192.42L996.819 1117.76L897.555 1121.92Z" stroke="#005479" stroke-width="10.5913" stroke-linecap="round" stroke-linejoin="round"/>
<path d="M1067.04 1129.19L1024.39 1102.62" stroke="#FFBA2C" stroke-width="10.5913" stroke-linecap="round" stroke-linejoin="round"/>
<path fill-rule="evenodd" clip-rule="evenodd" d="M1208.34 1237.97C1209.51 1240.65 1208.29 1243.77 1205.61 1244.94C1202.93 1246.11 1199.81 1244.89 1198.63 1242.21L1187.64 1217.1L1157.53 1229.79C1154.84 1230.93 1151.73 1229.66 1150.6 1226.97C1149.46 1224.27 1150.72 1221.17 1153.42 1220.03L1183.39 1207.4L1170.62 1178.21C1169.45 1175.53 1170.67 1172.41 1173.35 1171.24C1176.03 1170.06 1179.15 1171.29 1180.32 1173.97L1193.15 1203.28L1233.08 1186.45C1235.78 1185.32 1238.88 1186.58 1240.02 1189.28C1241.16 1191.97 1239.89 1195.08 1237.2 1196.21L1197.4 1212.99L1208.34 1237.97Z" fill="#005479"/>
<ellipse cx="27.5374" cy="30.1852" rx="27.5374" ry="30.1852" transform="matrix(0.640045 -0.768338 -0.768338 -0.640045 977.736 1077.54)" stroke="#FFBA2C" stroke-width="10.5913" stroke-linecap="round" stroke-linejoin="round"/>
<ellipse cx="34.9513" cy="33.8921" rx="34.9513" ry="33.8921" transform="matrix(0.640045 -0.768338 -0.768338 -0.640045 1117.6 1391.17)" stroke="#FFBA2C" stroke-width="10.5913" stroke-linecap="round" stroke-linejoin="round"/>
<ellipse cx="34.9513" cy="37.5991" rx="34.9513" ry="37.5991" transform="matrix(0.640045 -0.768338 -0.768338 -0.640045 1240.42 1137.84)" stroke="#FFBA2C" stroke-width="10.5913" stroke-linecap="round" stroke-linejoin="round"/>
<path d="M1393.42 669.785L1483.2 662.546L1442.36 776.517L1393.42 669.785Z" stroke="#FFBA2C" stroke-width="10.5913" stroke-linecap="round" stroke-linejoin="round"/>
<path d="M1249.79 797.705L1334.42 727.204L1349.06 801.859L1249.79 797.705Z" stroke="#005479" stroke-width="10.5913" stroke-linecap="round" stroke-linejoin="round"/>
<path d="M1483.72 797.205L1441.06 823.776" stroke="#FFBA2C" stroke-width="10.5913" stroke-linecap="round" stroke-linejoin="round"/>
<ellipse cx="1388.84" cy="889.333" rx="27.5374" ry="30.1852" transform="rotate(50.2048 1388.84 889.333)" stroke="#FFBA2C" stroke-width="10.5913" stroke-linecap="round" stroke-linejoin="round"/>
<path d="M1421.04 1089.89L1505.67 1160.39L1520.3 1085.73L1421.04 1089.89Z" stroke="#005479" stroke-width="10.5913" stroke-linecap="round" stroke-linejoin="round"/>
</g>
</svg>
