<svg width="1327" height="479" viewBox="0 0 1327 479" fill="none" xmlns="http://www.w3.org/2000/svg">
<g filter="url(#filter0_d_40_369)">
<path d="M1011.24 76V50.8H1022.15C1024.41 50.8 1026.35 51.172 1027.98 51.916C1029.61 52.636 1030.87 53.68 1031.76 55.048C1032.65 56.416 1033.09 58.048 1033.09 59.944C1033.09 61.816 1032.65 63.436 1031.76 64.804C1030.87 66.172 1029.61 67.228 1027.98 67.972C1026.35 68.692 1024.41 69.052 1022.15 69.052H1014.48L1017.07 66.424V76H1011.24ZM1017.07 67.072L1014.48 64.3H1021.83C1023.63 64.3 1024.97 63.916 1025.86 63.148C1026.75 62.38 1027.19 61.312 1027.19 59.944C1027.19 58.552 1026.75 57.472 1025.86 56.704C1024.97 55.936 1023.63 55.552 1021.83 55.552H1014.48L1017.07 52.78V67.072ZM1046.44 76.288C1044.23 76.288 1042.29 75.856 1040.61 74.992C1038.95 74.128 1037.67 72.952 1036.75 71.464C1035.84 69.952 1035.39 68.236 1035.39 66.316C1035.39 64.372 1035.83 62.656 1036.72 61.168C1037.63 59.656 1038.87 58.48 1040.43 57.64C1041.99 56.776 1043.75 56.344 1045.72 56.344C1047.61 56.344 1049.32 56.752 1050.83 57.568C1052.37 58.36 1053.58 59.512 1054.47 61.024C1055.35 62.512 1055.8 64.3 1055.8 66.388C1055.8 66.604 1055.79 66.856 1055.76 67.144C1055.74 67.408 1055.71 67.66 1055.69 67.9H1039.96V64.624H1052.74L1050.58 65.596C1050.58 64.588 1050.37 63.712 1049.97 62.968C1049.56 62.224 1048.99 61.648 1048.27 61.24C1047.55 60.808 1046.71 60.592 1045.75 60.592C1044.79 60.592 1043.94 60.808 1043.2 61.24C1042.48 61.648 1041.91 62.236 1041.51 63.004C1041.1 63.748 1040.89 64.636 1040.89 65.668V66.532C1040.89 67.588 1041.12 68.524 1041.58 69.34C1042.06 70.132 1042.72 70.744 1043.56 71.176C1044.42 71.584 1045.43 71.788 1046.58 71.788C1047.61 71.788 1048.51 71.632 1049.28 71.32C1050.07 71.008 1050.79 70.54 1051.44 69.916L1054.43 73.156C1053.54 74.164 1052.43 74.944 1051.08 75.496C1049.74 76.024 1048.19 76.288 1046.44 76.288ZM1067.46 76.288C1065.18 76.288 1063.4 75.712 1062.13 74.56C1060.86 73.384 1060.22 71.644 1060.22 69.34V52.348H1065.84V69.268C1065.84 70.084 1066.05 70.72 1066.49 71.176C1066.92 71.608 1067.51 71.824 1068.25 71.824C1069.14 71.824 1069.89 71.584 1070.52 71.104L1072.03 75.064C1071.45 75.472 1070.76 75.784 1069.94 76C1069.15 76.192 1068.32 76.288 1067.46 76.288ZM1057.23 61.384V57.064H1070.66V61.384H1057.23ZM1087.06 76V72.22L1086.7 71.392V64.624C1086.7 63.424 1086.33 62.488 1085.59 61.816C1084.87 61.144 1083.75 60.808 1082.24 60.808C1081.21 60.808 1080.19 60.976 1079.18 61.312C1078.19 61.624 1077.35 62.056 1076.66 62.608L1074.64 58.684C1075.7 57.94 1076.97 57.364 1078.46 56.956C1079.95 56.548 1081.46 56.344 1082.99 56.344C1085.95 56.344 1088.24 57.04 1089.87 58.432C1091.5 59.824 1092.32 61.996 1092.32 64.948V76H1087.06ZM1081.16 76.288C1079.65 76.288 1078.35 76.036 1077.27 75.532C1076.19 75.004 1075.36 74.296 1074.79 73.408C1074.21 72.52 1073.92 71.524 1073.92 70.42C1073.92 69.268 1074.2 68.26 1074.75 67.396C1075.33 66.532 1076.23 65.86 1077.45 65.38C1078.67 64.876 1080.27 64.624 1082.24 64.624H1087.39V67.9H1082.85C1081.53 67.9 1080.62 68.116 1080.11 68.548C1079.63 68.98 1079.39 69.52 1079.39 70.168C1079.39 70.888 1079.67 71.464 1080.22 71.896C1080.8 72.304 1081.58 72.508 1082.56 72.508C1083.5 72.508 1084.34 72.292 1085.08 71.86C1085.83 71.404 1086.37 70.744 1086.7 69.88L1087.57 72.472C1087.16 73.72 1086.41 74.668 1085.33 75.316C1084.25 75.964 1082.86 76.288 1081.16 76.288ZM1107.99 76V50.8H1118.9C1121.16 50.8 1123.1 51.172 1124.73 51.916C1126.36 52.636 1127.62 53.68 1128.51 55.048C1129.4 56.416 1129.84 58.048 1129.84 59.944C1129.84 61.816 1129.4 63.436 1128.51 64.804C1127.62 66.172 1126.36 67.228 1124.73 67.972C1123.1 68.692 1121.16 69.052 1118.9 69.052H1111.23L1113.82 66.424V76H1107.99ZM1113.82 67.072L1111.23 64.3H1118.58C1120.38 64.3 1121.72 63.916 1122.61 63.148C1123.5 62.38 1123.94 61.312 1123.94 59.944C1123.94 58.552 1123.5 57.472 1122.61 56.704C1121.72 55.936 1120.38 55.552 1118.58 55.552H1111.23L1113.82 52.78V67.072ZM1143.19 76.288C1140.98 76.288 1139.04 75.856 1137.36 74.992C1135.7 74.128 1134.42 72.952 1133.5 71.464C1132.59 69.952 1132.14 68.236 1132.14 66.316C1132.14 64.372 1132.58 62.656 1133.47 61.168C1134.38 59.656 1135.62 58.48 1137.18 57.64C1138.74 56.776 1140.5 56.344 1142.47 56.344C1144.36 56.344 1146.07 56.752 1147.58 57.568C1149.12 58.36 1150.33 59.512 1151.22 61.024C1152.1 62.512 1152.55 64.3 1152.55 66.388C1152.55 66.604 1152.54 66.856 1152.51 67.144C1152.49 67.408 1152.46 67.66 1152.44 67.9H1136.71V64.624H1149.49L1147.33 65.596C1147.33 64.588 1147.12 63.712 1146.72 62.968C1146.31 62.224 1145.74 61.648 1145.02 61.24C1144.3 60.808 1143.46 60.592 1142.5 60.592C1141.54 60.592 1140.69 60.808 1139.95 61.24C1139.23 61.648 1138.66 62.236 1138.26 63.004C1137.85 63.748 1137.64 64.636 1137.64 65.668V66.532C1137.64 67.588 1137.87 68.524 1138.33 69.34C1138.81 70.132 1139.47 70.744 1140.31 71.176C1141.17 71.584 1142.18 71.788 1143.33 71.788C1144.36 71.788 1145.26 71.632 1146.03 71.32C1146.82 71.008 1147.54 70.54 1148.19 69.916L1151.18 73.156C1150.29 74.164 1149.18 74.944 1147.83 75.496C1146.49 76.024 1144.94 76.288 1143.19 76.288ZM1156.29 76V56.632H1161.65V62.104L1160.9 60.52C1161.47 59.152 1162.4 58.12 1163.67 57.424C1164.94 56.704 1166.49 56.344 1168.31 56.344V61.528C1168.07 61.504 1167.86 61.492 1167.66 61.492C1167.47 61.468 1167.27 61.456 1167.05 61.456C1165.52 61.456 1164.27 61.9 1163.31 62.788C1162.37 63.652 1161.9 65.008 1161.9 66.856V76H1156.29ZM1178.31 76.288C1176.65 76.288 1175.06 76.096 1173.52 75.712C1172.01 75.304 1170.81 74.8 1169.92 74.2L1171.79 70.168C1172.68 70.72 1173.72 71.176 1174.92 71.536C1176.15 71.872 1177.35 72.04 1178.52 72.04C1179.82 72.04 1180.73 71.884 1181.26 71.572C1181.81 71.26 1182.09 70.828 1182.09 70.276C1182.09 69.82 1181.87 69.484 1181.44 69.268C1181.03 69.028 1180.48 68.848 1179.78 68.728C1179.09 68.608 1178.32 68.488 1177.48 68.368C1176.66 68.248 1175.84 68.092 1175 67.9C1174.16 67.684 1173.39 67.372 1172.69 66.964C1172 66.556 1171.43 66.004 1171 65.308C1170.59 64.612 1170.39 63.712 1170.39 62.608C1170.39 61.384 1170.74 60.304 1171.43 59.368C1172.15 58.432 1173.18 57.7 1174.53 57.172C1175.87 56.62 1177.48 56.344 1179.35 56.344C1180.67 56.344 1182.02 56.488 1183.38 56.776C1184.75 57.064 1185.89 57.484 1186.8 58.036L1184.93 62.032C1184 61.48 1183.05 61.108 1182.09 60.916C1181.15 60.7 1180.24 60.592 1179.35 60.592C1178.1 60.592 1177.19 60.76 1176.62 61.096C1176.04 61.432 1175.75 61.864 1175.75 62.392C1175.75 62.872 1175.96 63.232 1176.36 63.472C1176.8 63.712 1177.36 63.904 1178.06 64.048C1178.75 64.192 1179.51 64.324 1180.32 64.444C1181.16 64.54 1182 64.696 1182.84 64.912C1183.68 65.128 1184.44 65.44 1185.11 65.848C1185.81 66.232 1186.37 66.772 1186.8 67.468C1187.24 68.14 1187.45 69.028 1187.45 70.132C1187.45 71.332 1187.09 72.4 1186.37 73.336C1185.65 74.248 1184.61 74.968 1183.24 75.496C1181.9 76.024 1180.25 76.288 1178.31 76.288ZM1200.53 76.288C1198.32 76.288 1196.38 75.856 1194.7 74.992C1193.04 74.128 1191.76 72.952 1190.84 71.464C1189.93 69.952 1189.48 68.236 1189.48 66.316C1189.48 64.372 1189.92 62.656 1190.81 61.168C1191.72 59.656 1192.96 58.48 1194.52 57.64C1196.08 56.776 1197.84 56.344 1199.81 56.344C1201.7 56.344 1203.41 56.752 1204.92 57.568C1206.46 58.36 1207.67 59.512 1208.56 61.024C1209.44 62.512 1209.89 64.3 1209.89 66.388C1209.89 66.604 1209.88 66.856 1209.85 67.144C1209.83 67.408 1209.8 67.66 1209.78 67.9H1194.05V64.624H1206.83L1204.67 65.596C1204.67 64.588 1204.46 63.712 1204.06 62.968C1203.65 62.224 1203.08 61.648 1202.36 61.24C1201.64 60.808 1200.8 60.592 1199.84 60.592C1198.88 60.592 1198.03 60.808 1197.29 61.24C1196.57 61.648 1196 62.236 1195.6 63.004C1195.19 63.748 1194.98 64.636 1194.98 65.668V66.532C1194.98 67.588 1195.21 68.524 1195.67 69.34C1196.15 70.132 1196.81 70.744 1197.65 71.176C1198.51 71.584 1199.52 71.788 1200.67 71.788C1201.7 71.788 1202.6 71.632 1203.37 71.32C1204.16 71.008 1204.88 70.54 1205.53 69.916L1208.52 73.156C1207.63 74.164 1206.52 74.944 1205.17 75.496C1203.83 76.024 1202.28 76.288 1200.53 76.288ZM1225.08 76.288C1223.37 76.288 1221.91 75.928 1220.68 75.208C1219.46 74.488 1218.52 73.396 1217.88 71.932C1217.23 70.444 1216.9 68.572 1216.9 66.316C1216.9 64.036 1217.24 62.164 1217.91 60.7C1218.61 59.236 1219.57 58.144 1220.79 57.424C1222.02 56.704 1223.44 56.344 1225.08 56.344C1226.9 56.344 1228.53 56.752 1229.97 57.568C1231.44 58.384 1232.59 59.536 1233.43 61.024C1234.29 62.512 1234.72 64.276 1234.72 66.316C1234.72 68.332 1234.29 70.084 1233.43 71.572C1232.59 73.06 1231.44 74.224 1229.97 75.064C1228.53 75.88 1226.9 76.288 1225.08 76.288ZM1213.63 76V49.288H1219.24V60.556L1218.88 66.28L1218.99 72.04V76H1213.63ZM1224.1 71.68C1225.04 71.68 1225.87 71.464 1226.59 71.032C1227.33 70.6 1227.92 69.988 1228.35 69.196C1228.81 68.38 1229.04 67.42 1229.04 66.316C1229.04 65.188 1228.81 64.228 1228.35 63.436C1227.92 62.644 1227.33 62.032 1226.59 61.6C1225.87 61.168 1225.04 60.952 1224.1 60.952C1223.17 60.952 1222.33 61.168 1221.58 61.6C1220.84 62.032 1220.25 62.644 1219.82 63.436C1219.39 64.228 1219.17 65.188 1219.17 66.316C1219.17 67.42 1219.39 68.38 1219.82 69.196C1220.25 69.988 1220.84 70.6 1221.58 71.032C1222.33 71.464 1223.17 71.68 1224.1 71.68ZM1250.05 76V72.22L1249.69 71.392V64.624C1249.69 63.424 1249.31 62.488 1248.57 61.816C1247.85 61.144 1246.73 60.808 1245.22 60.808C1244.19 60.808 1243.17 60.976 1242.16 61.312C1241.18 61.624 1240.34 62.056 1239.64 62.608L1237.63 58.684C1238.68 57.94 1239.95 57.364 1241.44 56.956C1242.93 56.548 1244.44 56.344 1245.98 56.344C1248.93 56.344 1251.22 57.04 1252.85 58.432C1254.49 59.824 1255.3 61.996 1255.3 64.948V76H1250.05ZM1244.14 76.288C1242.63 76.288 1241.33 76.036 1240.25 75.532C1239.17 75.004 1238.35 74.296 1237.77 73.408C1237.19 72.52 1236.91 71.524 1236.91 70.42C1236.91 69.268 1237.18 68.26 1237.73 67.396C1238.31 66.532 1239.21 65.86 1240.43 65.38C1241.66 64.876 1243.25 64.624 1245.22 64.624H1250.37V67.9H1245.83C1244.51 67.9 1243.6 68.116 1243.1 68.548C1242.62 68.98 1242.38 69.52 1242.38 70.168C1242.38 70.888 1242.65 71.464 1243.21 71.896C1243.78 72.304 1244.56 72.508 1245.55 72.508C1246.48 72.508 1247.32 72.292 1248.07 71.86C1248.81 71.404 1249.35 70.744 1249.69 69.88L1250.55 72.472C1250.14 73.72 1249.4 74.668 1248.32 75.316C1247.24 75.964 1245.85 76.288 1244.14 76.288ZM1260.38 76V56.632H1265.75V62.104L1264.99 60.52C1265.57 59.152 1266.49 58.12 1267.76 57.424C1269.04 56.704 1270.58 56.344 1272.41 56.344V61.528C1272.17 61.504 1271.95 61.492 1271.76 61.492C1271.57 61.468 1271.36 61.456 1271.15 61.456C1269.61 61.456 1268.36 61.9 1267.4 62.788C1266.47 63.652 1266 65.008 1266 66.856V76H1260.38ZM1286.36 76V72.22L1286 71.392V64.624C1286 63.424 1285.63 62.488 1284.89 61.816C1284.17 61.144 1283.05 60.808 1281.54 60.808C1280.51 60.808 1279.49 60.976 1278.48 61.312C1277.49 61.624 1276.65 62.056 1275.96 62.608L1273.94 58.684C1275 57.94 1276.27 57.364 1277.76 56.956C1279.25 56.548 1280.76 56.344 1282.29 56.344C1285.25 56.344 1287.54 57.04 1289.17 58.432C1290.8 59.824 1291.62 61.996 1291.62 64.948V76H1286.36ZM1280.46 76.288C1278.95 76.288 1277.65 76.036 1276.57 75.532C1275.49 75.004 1274.66 74.296 1274.09 73.408C1273.51 72.52 1273.22 71.524 1273.22 70.42C1273.22 69.268 1273.5 68.26 1274.05 67.396C1274.63 66.532 1275.53 65.86 1276.75 65.38C1277.97 64.876 1279.57 64.624 1281.54 64.624H1286.69V67.9H1282.15C1280.83 67.9 1279.92 68.116 1279.41 68.548C1278.93 68.98 1278.69 69.52 1278.69 70.168C1278.69 70.888 1278.97 71.464 1279.52 71.896C1280.1 72.304 1280.88 72.508 1281.86 72.508C1282.8 72.508 1283.64 72.292 1284.38 71.86C1285.13 71.404 1285.67 70.744 1286 69.88L1286.87 72.472C1286.46 73.72 1285.71 74.668 1284.63 75.316C1283.55 75.964 1282.16 76.288 1280.46 76.288ZM1308.47 56.344C1310.01 56.344 1311.38 56.656 1312.58 57.28C1313.8 57.88 1314.76 58.816 1315.46 60.088C1316.15 61.336 1316.5 62.944 1316.5 64.912V76H1310.89V65.776C1310.89 64.216 1310.54 63.064 1309.84 62.32C1309.17 61.576 1308.21 61.204 1306.96 61.204C1306.07 61.204 1305.27 61.396 1304.55 61.78C1303.85 62.14 1303.3 62.704 1302.89 63.472C1302.51 64.24 1302.32 65.224 1302.32 66.424V76H1296.7V56.632H1302.07V61.996L1301.06 60.376C1301.75 59.08 1302.75 58.084 1304.05 57.388C1305.34 56.692 1306.82 56.344 1308.47 56.344ZM1010.03 120.432C1008.01 120.432 1006.08 120.168 1004.23 119.64C1002.39 119.088 1000.9 118.38 999.77 117.516L1001.75 113.124C1002.83 113.892 1004.1 114.528 1005.57 115.032C1007.05 115.512 1008.55 115.752 1010.07 115.752C1011.22 115.752 1012.14 115.644 1012.84 115.428C1013.56 115.188 1014.09 114.864 1014.42 114.456C1014.76 114.048 1014.93 113.58 1014.93 113.052C1014.93 112.38 1014.66 111.852 1014.13 111.468C1013.61 111.06 1012.91 110.736 1012.05 110.496C1011.18 110.232 1010.22 109.992 1009.17 109.776C1008.13 109.536 1007.09 109.248 1006.03 108.912C1005 108.576 1004.05 108.144 1003.19 107.616C1002.33 107.088 1001.62 106.392 1001.07 105.528C1000.54 104.664 1000.27 103.56 1000.27 102.216C1000.27 100.776 1000.66 99.468 1001.43 98.292C1002.22 97.092 1003.39 96.144 1004.95 95.448C1006.54 94.728 1008.52 94.368 1010.89 94.368C1012.48 94.368 1014.04 94.56 1015.57 94.944C1017.11 95.304 1018.47 95.856 1019.64 96.6L1017.84 101.028C1016.67 100.356 1015.49 99.864 1014.31 99.552C1013.14 99.216 1011.99 99.048 1010.86 99.048C1009.73 99.048 1008.81 99.18 1008.09 99.444C1007.37 99.708 1006.85 100.056 1006.54 100.488C1006.23 100.896 1006.07 101.376 1006.07 101.928C1006.07 102.576 1006.33 103.104 1006.86 103.512C1007.39 103.896 1008.09 104.208 1008.95 104.448C1009.81 104.688 1010.76 104.928 1011.79 105.168C1012.85 105.408 1013.89 105.684 1014.93 105.996C1015.98 106.308 1016.94 106.728 1017.81 107.256C1018.67 107.784 1019.37 108.48 1019.89 109.344C1020.45 110.208 1020.72 111.3 1020.72 112.62C1020.72 114.036 1020.33 115.332 1019.53 116.508C1018.74 117.684 1017.55 118.632 1015.97 119.352C1014.41 120.072 1012.43 120.432 1010.03 120.432ZM1024.31 120V100.632H1029.93V120H1024.31ZM1027.12 97.932C1026.09 97.932 1025.25 97.632 1024.6 97.032C1023.95 96.432 1023.63 95.688 1023.63 94.8C1023.63 93.912 1023.95 93.168 1024.6 92.568C1025.25 91.968 1026.09 91.668 1027.12 91.668C1028.15 91.668 1028.99 91.956 1029.64 92.532C1030.29 93.084 1030.61 93.804 1030.61 94.692C1030.61 95.628 1030.29 96.408 1029.64 97.032C1029.01 97.632 1028.17 97.932 1027.12 97.932ZM1041.65 120.288C1040 120.288 1038.4 120.096 1036.87 119.712C1035.35 119.304 1034.15 118.8 1033.27 118.2L1035.14 114.168C1036.03 114.72 1037.07 115.176 1038.27 115.536C1039.49 115.872 1040.69 116.04 1041.87 116.04C1043.17 116.04 1044.08 115.884 1044.61 115.572C1045.16 115.26 1045.43 114.828 1045.43 114.276C1045.43 113.82 1045.22 113.484 1044.79 113.268C1044.38 113.028 1043.83 112.848 1043.13 112.728C1042.43 112.608 1041.67 112.488 1040.83 112.368C1040.01 112.248 1039.18 112.092 1038.34 111.9C1037.5 111.684 1036.73 111.372 1036.04 110.964C1035.34 110.556 1034.78 110.004 1034.35 109.308C1033.94 108.612 1033.73 107.712 1033.73 106.608C1033.73 105.384 1034.08 104.304 1034.78 103.368C1035.5 102.432 1036.53 101.7 1037.87 101.172C1039.22 100.62 1040.83 100.344 1042.7 100.344C1044.02 100.344 1045.36 100.488 1046.73 100.776C1048.1 101.064 1049.24 101.484 1050.15 102.036L1048.28 106.032C1047.34 105.48 1046.39 105.108 1045.43 104.916C1044.5 104.7 1043.59 104.592 1042.7 104.592C1041.45 104.592 1040.54 104.76 1039.96 105.096C1039.39 105.432 1039.1 105.864 1039.1 106.392C1039.1 106.872 1039.3 107.232 1039.71 107.472C1040.14 107.712 1040.71 107.904 1041.4 108.048C1042.1 108.192 1042.85 108.324 1043.67 108.444C1044.51 108.54 1045.35 108.696 1046.19 108.912C1047.03 109.128 1047.79 109.44 1048.46 109.848C1049.15 110.232 1049.72 110.772 1050.15 111.468C1050.58 112.14 1050.8 113.028 1050.8 114.132C1050.8 115.332 1050.44 116.4 1049.72 117.336C1049 118.248 1047.95 118.968 1046.59 119.496C1045.24 120.024 1043.6 120.288 1041.65 120.288ZM1058.34 120L1051.36 100.632H1056.65L1062.44 117.3H1059.92L1065.97 100.632H1070.72L1076.59 117.3H1074.07L1080.05 100.632H1085.02L1078 120H1072.56L1067.41 105.708H1069.07L1063.74 120H1058.34ZM1098.87 120V116.22L1098.51 115.392V108.624C1098.51 107.424 1098.14 106.488 1097.4 105.816C1096.68 105.144 1095.56 104.808 1094.05 104.808C1093.02 104.808 1092 104.976 1090.99 105.312C1090.01 105.624 1089.17 106.056 1088.47 106.608L1086.45 102.684C1087.51 101.94 1088.78 101.364 1090.27 100.956C1091.76 100.548 1093.27 100.344 1094.81 100.344C1097.76 100.344 1100.05 101.04 1101.68 102.432C1103.31 103.824 1104.13 105.996 1104.13 108.948V120H1098.87ZM1092.97 120.288C1091.46 120.288 1090.16 120.036 1089.08 119.532C1088 119.004 1087.17 118.296 1086.6 117.408C1086.02 116.52 1085.73 115.524 1085.73 114.42C1085.73 113.268 1086.01 112.26 1086.56 111.396C1087.14 110.532 1088.04 109.86 1089.26 109.38C1090.49 108.876 1092.08 108.624 1094.05 108.624H1099.2V111.9H1094.66C1093.34 111.9 1092.43 112.116 1091.93 112.548C1091.45 112.98 1091.21 113.52 1091.21 114.168C1091.21 114.888 1091.48 115.464 1092.03 115.896C1092.61 116.304 1093.39 116.508 1094.37 116.508C1095.31 116.508 1096.15 116.292 1096.89 115.86C1097.64 115.404 1098.18 114.744 1098.51 113.88L1099.38 116.472C1098.97 117.72 1098.23 118.668 1097.15 119.316C1096.07 119.964 1094.67 120.288 1092.97 120.288ZM1132.04 120.432C1130.05 120.432 1128.2 120.108 1126.5 119.46C1124.82 118.812 1123.36 117.9 1122.11 116.724C1120.88 115.548 1119.92 114.168 1119.23 112.584C1118.56 111 1118.22 109.272 1118.22 107.4C1118.22 105.528 1118.56 103.8 1119.23 102.216C1119.92 100.632 1120.9 99.252 1122.14 98.076C1123.39 96.9 1124.86 95.988 1126.54 95.34C1128.22 94.692 1130.04 94.368 1132.01 94.368C1134 94.368 1135.82 94.692 1137.48 95.34C1139.16 95.988 1140.61 96.9 1141.84 98.076C1143.08 99.252 1144.06 100.632 1144.75 102.216C1145.45 103.776 1145.8 105.504 1145.8 107.4C1145.8 109.272 1145.45 111.012 1144.75 112.62C1144.06 114.204 1143.08 115.584 1141.84 116.76C1140.61 117.912 1139.16 118.812 1137.48 119.46C1135.82 120.108 1134.01 120.432 1132.04 120.432ZM1132.01 115.464C1133.14 115.464 1134.17 115.272 1135.1 114.888C1136.06 114.504 1136.9 113.952 1137.62 113.232C1138.34 112.512 1138.9 111.66 1139.28 110.676C1139.69 109.692 1139.89 108.6 1139.89 107.4C1139.89 106.2 1139.69 105.108 1139.28 104.124C1138.9 103.14 1138.34 102.288 1137.62 101.568C1136.93 100.848 1136.1 100.296 1135.14 99.912C1134.18 99.528 1133.14 99.336 1132.01 99.336C1130.88 99.336 1129.84 99.528 1128.88 99.912C1127.94 100.296 1127.11 100.848 1126.39 101.568C1125.67 102.288 1125.11 103.14 1124.7 104.124C1124.32 105.108 1124.12 106.2 1124.12 107.4C1124.12 108.576 1124.32 109.668 1124.7 110.676C1125.11 111.66 1125.66 112.512 1126.36 113.232C1127.08 113.952 1127.92 114.504 1128.88 114.888C1129.84 115.272 1130.88 115.464 1132.01 115.464ZM1161.23 120.288C1159.6 120.288 1158.17 119.928 1156.95 119.208C1155.72 118.488 1154.76 117.396 1154.07 115.932C1153.4 114.444 1153.06 112.572 1153.06 110.316C1153.06 108.036 1153.38 106.164 1154.03 104.7C1154.68 103.236 1155.62 102.144 1156.84 101.424C1158.06 100.704 1159.53 100.344 1161.23 100.344C1163.06 100.344 1164.69 100.764 1166.13 101.604C1167.59 102.42 1168.74 103.572 1169.58 105.06C1170.45 106.548 1170.88 108.3 1170.88 110.316C1170.88 112.356 1170.45 114.12 1169.58 115.608C1168.74 117.096 1167.59 118.248 1166.13 119.064C1164.69 119.88 1163.06 120.288 1161.23 120.288ZM1149.78 126.984V100.632H1155.15V104.592L1155.04 110.352L1155.4 116.076V126.984H1149.78ZM1160.26 115.68C1161.2 115.68 1162.02 115.464 1162.74 115.032C1163.49 114.6 1164.08 113.988 1164.51 113.196C1164.96 112.38 1165.19 111.42 1165.19 110.316C1165.19 109.188 1164.96 108.228 1164.51 107.436C1164.08 106.644 1163.49 106.032 1162.74 105.6C1162.02 105.168 1161.2 104.952 1160.26 104.952C1159.32 104.952 1158.48 105.168 1157.74 105.6C1157 106.032 1156.41 106.644 1155.98 107.436C1155.54 108.228 1155.33 109.188 1155.33 110.316C1155.33 111.42 1155.54 112.38 1155.98 113.196C1156.41 113.988 1157 114.6 1157.74 115.032C1158.48 115.464 1159.32 115.68 1160.26 115.68ZM1184.25 120.288C1182.04 120.288 1180.1 119.856 1178.42 118.992C1176.76 118.128 1175.48 116.952 1174.57 115.464C1173.65 113.952 1173.2 112.236 1173.2 110.316C1173.2 108.372 1173.64 106.656 1174.53 105.168C1175.44 103.656 1176.68 102.48 1178.24 101.64C1179.8 100.776 1181.56 100.344 1183.53 100.344C1185.43 100.344 1187.13 100.752 1188.64 101.568C1190.18 102.36 1191.39 103.512 1192.28 105.024C1193.17 106.512 1193.61 108.3 1193.61 110.388C1193.61 110.604 1193.6 110.856 1193.57 111.144C1193.55 111.408 1193.53 111.66 1193.5 111.9H1177.77V108.624H1190.55L1188.39 109.596C1188.39 108.588 1188.19 107.712 1187.78 106.968C1187.37 106.224 1186.81 105.648 1186.09 105.24C1185.37 104.808 1184.53 104.592 1183.57 104.592C1182.61 104.592 1181.75 104.808 1181.01 105.24C1180.29 105.648 1179.73 106.236 1179.32 107.004C1178.91 107.748 1178.71 108.636 1178.71 109.668V110.532C1178.71 111.588 1178.93 112.524 1179.39 113.34C1179.87 114.132 1180.53 114.744 1181.37 115.176C1182.23 115.584 1183.24 115.788 1184.39 115.788C1185.43 115.788 1186.33 115.632 1187.09 115.32C1187.89 115.008 1188.61 114.54 1189.25 113.916L1192.24 117.156C1191.35 118.164 1190.24 118.944 1188.89 119.496C1187.55 120.024 1186 120.288 1184.25 120.288ZM1209.12 100.344C1210.66 100.344 1212.03 100.656 1213.23 101.28C1214.45 101.88 1215.41 102.816 1216.11 104.088C1216.8 105.336 1217.15 106.944 1217.15 108.912V120H1211.53V109.776C1211.53 108.216 1211.19 107.064 1210.49 106.32C1209.82 105.576 1208.86 105.204 1207.61 105.204C1206.72 105.204 1205.92 105.396 1205.2 105.78C1204.5 106.14 1203.95 106.704 1203.54 107.472C1203.16 108.24 1202.97 109.224 1202.97 110.424V120H1197.35V100.632H1202.71V105.996L1201.71 104.376C1202.4 103.08 1203.4 102.084 1204.69 101.388C1205.99 100.692 1207.47 100.344 1209.12 100.344ZM1244.89 120.432C1242.95 120.432 1241.14 120.12 1239.46 119.496C1237.8 118.848 1236.36 117.936 1235.14 116.76C1233.91 115.584 1232.95 114.204 1232.26 112.62C1231.58 111.036 1231.25 109.296 1231.25 107.4C1231.25 105.504 1231.58 103.764 1232.26 102.18C1232.95 100.596 1233.91 99.216 1235.14 98.04C1236.38 96.864 1237.84 95.964 1239.49 95.34C1241.15 94.692 1242.96 94.368 1244.93 94.368C1247.11 94.368 1249.08 94.752 1250.83 95.52C1252.61 96.264 1254.1 97.368 1255.3 98.832L1251.55 102.288C1250.69 101.304 1249.73 100.572 1248.67 100.092C1247.62 99.588 1246.46 99.336 1245.22 99.336C1244.04 99.336 1242.96 99.528 1241.98 99.912C1240.99 100.296 1240.14 100.848 1239.42 101.568C1238.7 102.288 1238.14 103.14 1237.73 104.124C1237.34 105.108 1237.15 106.2 1237.15 107.4C1237.15 108.6 1237.34 109.692 1237.73 110.676C1238.14 111.66 1238.7 112.512 1239.42 113.232C1240.14 113.952 1240.99 114.504 1241.98 114.888C1242.96 115.272 1244.04 115.464 1245.22 115.464C1246.46 115.464 1247.62 115.224 1248.67 114.744C1249.73 114.24 1250.69 113.484 1251.55 112.476L1255.3 115.932C1254.1 117.396 1252.61 118.512 1250.83 119.28C1249.08 120.048 1247.1 120.432 1244.89 120.432ZM1270.61 100.344C1272.15 100.344 1273.51 100.656 1274.71 101.28C1275.94 101.88 1276.9 102.816 1277.59 104.088C1278.29 105.336 1278.64 106.944 1278.64 108.912V120H1273.02V109.776C1273.02 108.216 1272.67 107.064 1271.98 106.32C1271.31 105.576 1270.35 105.204 1269.1 105.204C1268.21 105.204 1267.41 105.396 1266.69 105.78C1265.99 106.14 1265.44 106.704 1265.03 107.472C1264.65 108.24 1264.45 109.224 1264.45 110.424V120H1258.84V93.288H1264.45V105.996L1263.19 104.376C1263.89 103.08 1264.89 102.084 1266.18 101.388C1267.48 100.692 1268.95 100.344 1270.61 100.344ZM1295.61 120V116.22L1295.25 115.392V108.624C1295.25 107.424 1294.88 106.488 1294.13 105.816C1293.41 105.144 1292.3 104.808 1290.78 104.808C1289.75 104.808 1288.73 104.976 1287.72 105.312C1286.74 105.624 1285.9 106.056 1285.2 106.608L1283.19 102.684C1284.24 101.94 1285.52 101.364 1287 100.956C1288.49 100.548 1290 100.344 1291.54 100.344C1294.49 100.344 1296.78 101.04 1298.42 102.432C1300.05 103.824 1300.86 105.996 1300.86 108.948V120H1295.61ZM1289.7 120.288C1288.19 120.288 1286.9 120.036 1285.82 119.532C1284.74 119.004 1283.91 118.296 1283.33 117.408C1282.76 116.52 1282.47 115.524 1282.47 114.42C1282.47 113.268 1282.74 112.26 1283.3 111.396C1283.87 110.532 1284.77 109.86 1286 109.38C1287.22 108.876 1288.82 108.624 1290.78 108.624H1295.93V111.9H1291.4C1290.08 111.9 1289.16 112.116 1288.66 112.548C1288.18 112.98 1287.94 113.52 1287.94 114.168C1287.94 114.888 1288.22 115.464 1288.77 115.896C1289.34 116.304 1290.12 116.508 1291.11 116.508C1292.04 116.508 1292.88 116.292 1293.63 115.86C1294.37 115.404 1294.91 114.744 1295.25 113.88L1296.11 116.472C1295.7 117.72 1294.96 118.668 1293.88 119.316C1292.8 119.964 1291.41 120.288 1289.7 120.288ZM1313.87 120.288C1311.59 120.288 1309.81 119.712 1308.54 118.56C1307.27 117.384 1306.63 115.644 1306.63 113.34V96.348H1312.25V113.268C1312.25 114.084 1312.46 114.72 1312.9 115.176C1313.33 115.608 1313.92 115.824 1314.66 115.824C1315.55 115.824 1316.3 115.584 1316.93 115.104L1318.44 119.064C1317.86 119.472 1317.17 119.784 1316.35 120C1315.56 120.192 1314.73 120.288 1313.87 120.288ZM1303.64 105.384V101.064H1317.07V105.384H1303.64Z" fill="black"/>
</g>
<g filter="url(#filter1_d_40_369)">
<path d="M305.151 228.576C302.346 231.324 305.151 234.609 305.151 238.631C305.151 242.652 300.781 235.666 297.61 235.614C291.085 235.509 283.635 241.616 286.048 247.68C288.213 253.122 296.736 247.426 300.124 252.204C301.996 254.845 299.41 257.177 302.134 258.926C304.282 260.305 307.698 257.734 308.167 258.926C309.675 262.761 305.528 267.088 308.167 270.991C310.781 274.857 315.932 274.019 320.233 275.832C324.77 277.744 329.456 285.192 331.795 280.859C333.448 277.798 327.997 275.546 329.281 272.313C330.369 269.576 335.262 270.733 335.314 267.788C335.376 264.25 330.837 266.543 327.773 264.772C321.853 261.35 319.227 257.558 316.713 251.199C315.029 246.936 315.454 243.869 313.697 239.636C311.605 234.595 309.051 224.757 305.151 228.576Z" fill="#FBBC05"/>
<path d="M4.92573 15.1493C1.97194 16.9755 0.300044 19.1471 0.0209808 22.6612C-0.297765 26.6752 3.09281 28.1097 4.92573 31.6755C7.5932 36.8649 7.90988 40.4692 11.3019 45.197C14.5845 49.7723 17.6668 51.2098 21.6019 55.2129C27.5537 61.2675 29.4489 66.2959 36.3161 71.2383C42.1991 75.4722 47.613 74.3683 52.9923 79.2509C57.9554 83.7559 60.8825 87.1523 62.3113 93.774C63.1768 97.7848 59.0381 101.903 62.3113 104.291C64.6493 105.996 67.0236 103.145 69.6684 104.291C74.9727 106.589 70.0405 114.181 73.5922 118.814C79.4062 126.397 89.1717 119.161 97.135 124.322C113.49 134.923 94.1923 167.417 124.602 188.661C155.011 209.905 160.897 241.271 163.349 258.034C165.802 274.798 187.382 280.57 197.192 296.596C207.001 312.621 218.282 328.383 230.544 332.653C242.806 336.923 249.422 350 261.444 361.198C264.387 363.939 268.774 363.967 271.744 361.198C274.997 358.165 268.887 353.104 271.744 349.68C276.15 344.399 279.127 364.708 284.987 361.198C289.01 358.788 284.528 348.051 288.911 349.68C291.507 350.644 291.905 353.033 292.835 355.689C294.123 359.373 290.382 362.7 292.835 365.705C296.665 370.399 305.302 359.173 307.324 353.422C309.444 347.393 300.397 342.718 303.891 337.397C305.49 334.96 305.188 337.384 307.058 335.157C312.668 328.475 304.043 320.866 307.058 312.621C308.197 309.506 311.039 308.433 310.982 305.109C310.894 299.976 301.476 301.72 301.173 296.596C300.803 290.367 312.475 293.999 314.415 288.082C317.009 280.175 301.173 271.556 301.173 271.556C301.173 271.556 296.34 262.591 290.873 260.538C283.588 257.803 274.049 273.614 271.744 266.047C270.265 261.192 276.65 259.113 276.649 254.028C276.647 246.321 265.334 245.71 265.368 238.003C265.385 234.106 268.547 232.377 268.311 228.488C267.859 221.029 261.586 217.62 254.577 215.467C249.992 214.058 246.822 217.121 242.316 215.467C235.53 212.977 224.989 205.638 230.544 200.944C234.086 197.951 239.959 204.974 242.316 200.944C244.6 197.038 235.695 194.625 237.411 190.427C238.784 187.066 243.605 188.883 245.258 185.656C246.721 182.802 246.328 180.438 245.258 177.407C243.081 171.235 233.417 164.027 230.544 169.895C229.259 172.519 231.672 174.709 230.544 177.407C228.227 182.947 218.213 186.424 215.83 180.912C213.813 176.246 222.343 174.982 222.697 169.895C223.388 159.947 206.255 166.648 200.135 158.877C195.54 153.044 199.341 145.701 193.759 140.849C189.33 136.999 182.554 141.417 179.535 136.341C176.102 130.569 175.198 114.713 168.254 118.814C162.441 122.246 169.725 136.341 165.802 134.075C161.878 131.808 158.935 124.322 151.087 118.814C143.24 113.305 150.4 106.503 144.711 104.291C141.847 103.177 139.703 105.468 136.863 104.291C131.083 101.893 135.669 93.8879 131.959 88.766C128.105 83.4452 118.225 79.2509 118.225 79.2509C118.225 79.2509 97.135 68.9713 90.7588 61.2224C87.5553 57.3292 94.0454 52.0221 90.7588 48.2017C88.1194 45.1336 84.2522 47.5 80.9493 45.197C76.0637 41.7904 77.9363 35.7762 73.5922 31.6755C69.9436 28.2313 66.9792 27.4054 62.3113 25.666C55.7443 23.219 51.6234 23.2203 44.6542 22.6612C38.3527 22.1557 34.5531 24.4095 28.4685 22.6612C22.934 21.071 21.3266 16.4327 15.7162 15.1493C11.6042 14.2087 8.53036 12.9208 4.92573 15.1493Z" fill="#FBBC05"/>
<path d="M281.021 387.938C281.75 384.419 286.984 381.82 292.583 381.403C296.484 381.111 300.294 385.86 302.135 382.408C306.157 374.867 304.102 361.005 314.703 360.289C322.2 359.782 324.069 365.474 330.79 368.835C336.823 371.851 344.028 365.483 349.39 363.808C354.753 362.132 356.836 371.114 362.964 372.857C368.44 374.414 373.5 376.865 377.543 372.857C378.858 371.552 378.646 370.035 380.056 368.835C384.603 364.965 381.937 379.4 387.094 382.408C405.192 392.965 423.793 396.484 441.388 391.96C450.594 389.593 445.126 373.569 454.459 375.37C461.475 376.724 461.098 384.32 467.53 387.435C473.713 390.431 478.851 384.632 485.125 387.435C487.959 388.702 488.888 390.564 491.66 391.96C496.853 394.575 502.454 390.563 506.239 394.976C509.474 398.75 505.832 403.201 508.25 407.544C509.205 409.26 511.266 409.603 511.266 411.566C511.266 413.529 507.71 413.7 508.25 415.588C510.26 422.626 547.964 411.063 549.473 413.577C551.594 417.112 549.074 420.03 549.473 424.134C550.548 435.203 562.041 447.762 559.527 450.778C555.339 455.805 539.418 436.199 528.359 434.691C517.299 433.183 507.549 441.498 494.174 439.718C487.09 438.776 483.566 436.188 476.578 434.691C465.385 432.293 456.47 434.691 447.421 431.675C438.372 428.658 430.439 417.701 417.258 415.588C406.533 413.868 400.364 417.091 389.608 418.604C382.321 419.629 378.256 422.887 371.007 421.62C362.211 420.083 360.265 412.19 351.904 409.052C340.311 404.701 315.496 414.656 319.73 403.019C321.208 398.957 326.084 403.155 327.271 398.998C328.275 395.479 312.686 389.856 302.135 387.938C294.022 386.464 280.291 391.457 281.021 387.938Z" fill="#FBBC05"/>
<path d="M566.863 438.26C567.717 432.952 575.128 442.528 580.323 441.144C583.248 440.364 584.065 437.782 587.053 437.298C592.025 436.494 593.782 440.183 598.59 443.067C603.397 445.951 598.201 447.022 596.667 448.835C595.04 450.758 592.648 449.907 590.898 451.719C589.958 452.693 589.937 454.924 588.976 454.604C588.014 454.283 584.168 451.719 584.168 451.719C584.168 451.719 579.682 447.874 578.4 446.912C577.118 445.951 573.986 447.248 571.67 445.951C568.58 444.22 566.3 441.757 566.863 438.26Z" fill="#FBBC05"/>
<path d="M619.35 452.287C620.19 454.791 622.292 453.731 622.869 456.308C623.127 457.458 622.869 459.073 623.875 459.324C627.897 460.33 633.351 458.906 639.459 458.319C645.725 457.717 649.611 459.409 655.546 457.314C660.886 455.428 662.566 446.698 667.611 449.27C669.717 450.344 669.488 452.801 671.633 453.795C674.708 455.22 676.824 452.765 680.179 452.287C683.893 451.757 687.371 454.196 689.731 451.281C691.831 448.687 690.433 445.998 689.731 442.735C688.676 437.83 686.212 437.204 684.201 432.68C683.165 430.348 678.882 432.931 676.66 431.675C675.452 430.992 675.45 429.638 674.147 429.161C671.405 428.159 671.229 432.887 668.617 434.189C662.479 437.247 653.301 423.544 651.524 430.167C650.11 435.439 661.421 435.938 660.071 441.227C659.142 444.861 656.764 448.139 653.032 447.762C649.24 447.379 650.184 439.383 647.503 439.719C644.821 440.054 644.989 441.227 640.465 441.227C638.378 441.227 637.987 438.747 634.432 437.707C630.877 436.667 628.568 438.672 625.886 441.227C622.253 444.687 617.756 447.53 619.35 452.287Z" fill="#FBBC05"/>
<path d="M737.491 457.314C730.084 455.985 726.43 446.254 724.419 451.281C722.408 456.308 709.84 455.303 708.834 450.276C707.829 445.249 715.369 438.211 716.376 438.21C717.383 438.21 718.825 440.3 720.398 439.719C722.321 439.008 720.098 435.656 721.906 434.691C729.446 430.67 743.522 440.724 755.086 440.724C758.706 440.724 758.592 435.486 762.124 434.691C768.108 433.345 768.056 444.746 774.189 444.746C785.751 444.746 783.577 436.282 786.757 434.691C788.767 433.686 789.668 435.299 790.779 434.189C791.889 433.078 790.31 432.169 790.779 430.67C791.855 427.23 795.275 425.507 798.822 426.145C803.711 427.025 802.34 435.194 801.335 437.205C800.329 439.216 796.064 445.488 790.779 448.265C783.818 451.922 772.681 449.773 770.669 450.276C768.657 450.779 771.172 454.8 764.636 454.8C761.027 454.8 759.641 452.94 756.091 452.287C748.691 450.924 744.897 458.643 737.491 457.314Z" fill="#FBBC05"/>
<path d="M833.006 461.838C836.021 458.822 845.18 463.66 850.601 459.324C854.921 455.869 852.456 449.707 857.136 446.756C861.467 444.026 865.268 447.098 870.207 445.751C872.845 445.031 874.137 444.067 876.742 443.237C890.211 438.947 905.328 455.149 912.938 443.237C914.215 441.238 913.581 439.166 915.452 437.707C917.322 436.249 927.014 440.221 926.009 442.232C921.987 450.276 914.971 450.082 907.409 459.324C902.884 464.854 902.142 462.076 895.343 463.346C892.718 463.837 888.808 458.319 883.278 460.833C877.748 463.346 829.99 464.854 833.006 461.838Z" fill="#FBBC05"/>
<path d="M831.411 353.971C832.029 356.131 836.178 358.739 829.822 359.586C823.465 360.433 825.911 362.304 823.465 362.712C818.698 363.507 821.083 362.711 821.875 356.355C822.668 349.999 823.29 349.044 826.643 349.204C829.273 349.329 830.687 351.44 831.411 353.971Z" fill="#FBBC05"/>
<path d="M909.922 286.389C902.492 288.235 892.327 283.373 890.316 286.389C888.574 289.003 889.86 291.325 890.316 294.433C890.731 297.261 890.763 299.079 892.327 301.471C895.067 305.66 899.612 304.403 903.89 307.001C908.085 309.549 909.069 315.113 913.944 314.542C918.787 313.974 917.904 307.656 921.988 304.99C926.098 302.307 932.545 304.487 934.053 301.471C935.561 298.455 930.065 296.473 926.009 292.925C922.504 289.858 919.826 283.898 915.955 284.378C913.491 284.684 912.332 285.791 909.922 286.389Z" fill="#FBBC05"/>
<path d="M952.15 277.34C956.674 274.826 961.587 284.256 969.243 284.378C973.439 284.445 975.726 283.376 979.8 282.367C984.802 281.129 987.217 278.187 992.368 278.346C997.652 278.509 999.783 284.552 1004.94 283.373C1007.08 282.883 1007.77 280.859 1009.96 280.859C1014.49 280.859 1020.86 283.373 1023.54 287.395C1025.83 290.842 1020.95 292.705 1023.54 295.941C1025.24 298.072 1027.89 297.309 1029.57 299.46C1032.35 303.021 1031.03 309.514 1029.57 311.022C1028.1 312.531 1021.33 311.261 1016.5 309.514C1008.91 306.77 1008.96 296.606 1000.91 295.941C996.69 295.591 994.573 298.021 990.357 298.454C984.08 299.1 984.996 295.781 978.795 296.946C975.744 297.52 970.248 298.454 966.729 298.454C959.256 298.454 956.788 296.336 953.658 290.411C951.176 285.711 949.637 278.737 952.15 277.34Z" fill="#FBBC05"/>
<path d="M960.697 181.823C955.541 180.591 950.555 177.783 947.124 181.823C943.634 185.933 948.176 190.208 949.637 195.397C951.12 200.661 952.422 203.479 954.664 208.467C957.401 214.556 963.21 220.533 961.702 222.543C959.785 225.1 956.675 223.549 954.664 222.041C950.32 218.783 947.979 216.372 945.615 211.484C944.101 208.352 944.57 206.091 943.102 202.937C941.608 199.729 939.832 199.861 939.08 196.402C938.129 192.027 942.883 188.44 941.091 184.337C939.923 181.662 937.918 181.896 936.567 179.31C934.748 175.83 936.421 173.086 935.561 169.255C934.425 164.194 927.577 159.943 930.534 155.682C931.408 154.422 931.64 154.406 932.545 153.168C934.745 150.156 931.17 149.254 932.042 145.627C933.99 137.529 951.131 123.244 947.124 130.546C946.573 131.549 946.025 131.99 945.615 133.059C944.403 136.224 946.428 138.289 947.124 141.606C947.954 145.567 950.617 147.733 949.637 151.66C948.694 155.441 943.844 155.375 943.102 159.201C942.296 163.352 942.902 169 947.124 169.255C951.736 169.534 947.452 157.116 951.648 155.179C958.183 152.163 957.178 149.146 962.708 145.627C966.021 143.519 967.817 143.019 970.751 145.627C974.285 148.769 972.362 153.754 969.746 157.693C967.455 161.143 963.314 160.013 960.697 163.223C958.416 166.02 956.671 168.195 957.178 171.769C958.06 177.98 969.169 171.84 972.26 177.299C973.177 178.92 973.241 180.037 973.768 181.823C974.792 185.296 976.952 187.353 976.281 189.364C974.941 193.386 967.378 183.419 960.697 181.823Z" fill="#FBBC05"/>
<path d="M414.743 129.541C412.229 128.033 405.191 139.26 401.672 142.611C398.153 145.963 401.122 147.007 400.164 149.649C398.661 153.797 396.091 155.539 394.634 159.704C392.495 165.819 392.624 172.775 394.634 175.288C398.905 180.628 405.252 182.527 405.191 189.364C405.146 194.551 398.648 195.74 398.656 200.927C398.665 206.483 404.035 207.874 406.197 212.992C408.699 218.916 406.7 227.571 410.219 229.079C413.738 230.587 418.27 217.236 423.792 220.533C427.034 222.469 427.583 225.375 428.317 229.079C428.812 231.583 428.723 233.095 428.317 235.615C427.852 238.496 426.598 237.235 426.306 240.139C425.759 245.581 429.763 250.36 430.83 255.723C432.056 261.885 431.167 271.149 435.355 275.832C437.933 278.715 439.762 274.506 442.393 277.34C443.653 278.698 453.644 280.703 455.463 280.357C466.021 278.346 466.523 277.34 472.053 278.346C478.912 279.593 473.793 287.549 479.594 291.416C482.61 293.427 486.657 292.001 489.648 291.416C498.126 289.76 507.544 296.196 511.265 288.4C513.041 284.679 508.651 280.357 512.773 280.357C517.298 280.357 516.167 289.459 521.32 289.406C524.569 289.372 525.73 285.013 528.86 285.887C532.168 286.809 529.199 291.126 532.38 292.422C536.128 293.949 539.105 288.101 542.937 289.406C545.175 290.167 544.294 291.464 546.456 292.422C549.328 293.694 552.591 292.253 555.505 293.427C558.212 294.518 559.697 295.86 561.034 298.455C563.654 303.536 553.31 308.174 557.013 312.531C557.867 313.536 567.298 313.13 572.094 309.514C574.203 307.924 574.294 305.742 576.619 304.487C579.901 302.715 582.288 304.556 585.668 302.979C593.209 299.46 598.538 297.279 600.247 289.406C600.954 286.144 600.096 283.402 602.258 280.859C604.8 277.868 608.53 282.63 611.306 279.854C613.82 277.34 610.764 272.565 612.815 267.789C614.276 264.385 617.777 261.395 618.345 257.734C619.247 251.911 610.366 252.567 610.301 246.674C610.219 239.253 616.062 236.221 621.864 231.593C626.531 227.869 632.775 229.9 635.437 224.555C637.45 220.513 633.817 217.207 635.437 212.992C637.638 207.267 642.834 208.697 645.994 203.44C650.951 195.196 645.417 187.414 648.508 178.304C650.922 171.189 650.899 164.496 658.059 162.217C669.119 158.698 686.714 167.747 690.736 162.217C696.769 153.922 666.606 149.147 658.059 136.579C653.638 130.077 662.586 123.5 659.065 116.47C657.012 112.372 651.488 112.483 651.021 107.924C650.679 104.586 652.766 103.227 652.529 99.8803C652.079 93.5255 639.191 97.0736 640.464 90.8313C641.359 86.4447 645.807 86.3044 649.513 83.7932C651.994 82.1123 654.038 81.2601 654.038 78.2633C654.038 71.728 648.701 66.6263 640.464 63.6845C626.388 58.6573 602.257 60.1655 597.23 63.6845C594.158 65.8354 598.546 69.4982 598.236 73.2361C597.804 78.4347 594.2 80.6106 593.711 85.8041C593.527 87.7587 594.277 88.9515 593.711 90.8313C592.391 95.2158 584.128 92.3092 583.657 96.8639C583.24 100.89 589.2 100.984 590.192 104.907C590.77 107.191 590.794 108.662 590.192 110.94C588.301 118.095 576.918 111.97 572.597 117.978C571.315 119.76 571.566 121.387 570.083 123.005C567.315 126.028 562.762 122.966 560.029 126.022C556.877 129.546 562.017 134.427 559.024 138.087C555.828 141.994 548.582 140.725 544.445 143.617C539.333 147.19 544.795 153.103 538.915 155.179C533.411 157.123 527.658 150.011 521.822 150.152C516.355 150.284 515.522 159.157 511.768 155.179C509.574 152.855 511.768 149.954 510.26 147.136C507.999 142.91 504.998 141.606 500.205 141.606C490.654 141.606 485.794 159.034 480.097 157.19C474.399 155.347 472.157 153.933 465.015 154.174C458.624 154.39 449.91 157.014 443.901 159.201C437.891 161.388 421.44 149.886 417.257 139.595C415.516 135.314 417.257 131.049 414.743 129.541Z" fill="#FBBC05"/>
<path d="M671.131 274.827C673.85 271.63 677.815 274.434 681.688 272.816C689.902 269.385 694.27 264.267 696.769 255.724C698.423 250.071 697.228 246.514 696.769 240.642C696.43 236.296 694.429 233.861 695.261 229.582C696.666 222.359 704.621 222.363 708.332 216.009C710.373 212.514 712.715 210.488 712.354 206.457C711.82 200.497 700.308 202.367 700.791 196.403C701.151 191.966 705.853 191.553 708.332 187.856C711.563 183.039 710.551 178.654 714.365 174.283C718.415 169.64 722.776 169.604 727.938 166.239C731.953 163.623 735.9 163.514 737.992 159.201C739.374 156.353 738.998 154.174 740.003 153.169C742.388 150.785 750.146 148.121 756.09 151.158C759.067 152.679 759.47 155.582 762.626 156.688C767.614 158.436 770.414 152.957 775.696 153.169C783.509 153.482 785.694 160.873 793.291 162.72C797.886 163.838 800.629 163.772 805.357 163.726C815.599 163.625 821.405 161.794 830.995 158.196C835.437 156.529 837.815 155.296 842.055 153.169C847.083 150.646 850.261 149.682 854.623 146.131C857.207 144.027 857.546 141.294 860.656 140.098C863.404 139.041 865.73 138.489 868.197 140.098C871.39 142.18 871.883 148.309 870.208 149.65C868.532 150.99 866.661 152.665 865.18 155.18C863.415 158.178 863.505 161.38 862.667 163.726C861.829 166.072 856.977 164.352 854.623 166.742C851.784 169.626 854.161 173.307 852.11 176.797C849.264 181.637 845.819 183.41 840.547 185.343C834.096 187.708 829.598 183.598 822.952 185.343C819.461 186.26 818.011 189.042 814.406 188.862C809.259 188.605 810.651 182.714 805.859 180.818C800.383 178.651 796.165 179.813 790.275 179.813C784.189 179.813 782.734 179.31 774.188 179.813C770.765 180.014 769.057 176.495 765.642 176.797C763.279 177.005 762.377 178.604 760.112 179.31C754.677 181.005 750.968 181.005 745.533 179.31C743.268 178.604 742.357 177.091 740.003 176.797C736.241 176.325 734.06 178.141 730.954 180.316C726.449 183.471 723.483 186.407 722.911 191.878C722.622 194.64 723.652 196.152 723.916 198.916C724.459 204.584 721.724 208.241 723.916 213.495C725.007 216.108 725.546 218.013 727.938 219.528C731.089 221.524 735.087 216.674 737.49 219.528C739.513 221.93 736.686 224.534 737.49 227.571C738.299 230.632 738.852 232.892 741.511 234.609C744.645 236.633 748.187 236.985 751.063 234.609C754.544 231.734 748.373 226.673 751.063 223.047C752.491 221.122 753.867 220.423 756.09 219.528C761.061 217.526 764.312 221.812 769.664 221.539C775.133 221.259 777.807 218.726 783.237 218.02C788.883 217.285 797.718 223.712 797.816 218.02C797.861 215.386 794.368 214.585 794.8 211.987C795.404 208.348 799.664 208.184 803.346 207.965C807.567 207.714 809.223 211.331 813.4 211.987C816.309 212.444 818.135 211.695 818.93 212.49C822.952 216.511 820.268 223.016 814.406 224.555C810.441 225.596 808.448 223.187 804.351 223.047C793.624 222.679 792.137 234.642 783.237 240.642C778.128 244.086 775.421 246.492 769.664 248.685C766.059 250.059 761.965 247.816 760.112 251.199C757.644 255.706 766.798 255.983 769.664 260.248C773.022 265.247 771.396 269.786 774.691 274.827C778.5 280.656 793.071 281.351 788.264 286.389C785.5 289.287 780.063 284.85 778.21 288.4C775.961 292.709 785.99 292.649 786.756 297.449C787.229 300.415 783.697 302.418 785.248 304.99C786.66 307.332 790.13 305.326 791.783 307.504C793.683 310.006 789.419 313.479 791.783 315.547C793.852 317.357 796.766 313.723 798.821 315.547C801.845 318.23 797.049 322.199 793.794 324.596C790.415 327.085 786.965 324.679 783.237 326.607C778.92 328.84 779.118 333.649 774.691 335.656C769.863 337.845 765.552 338.56 761.117 335.656C757.653 333.387 756.174 330.707 755.588 326.607C754.874 321.626 760.329 319.569 760.112 314.542C759.758 306.348 746.836 307.119 746.036 298.957C745.686 295.392 747.709 293.487 747.544 289.908C747.415 287.1 746.592 285.626 746.036 282.87C745.404 279.738 743.481 277.846 744.528 274.827C745.171 272.972 747.322 272.756 747.544 270.805C747.874 267.905 745.258 266.277 742.517 265.275C738.146 263.677 735.451 267.728 731.96 270.805C727.21 274.992 724.436 278.571 723.916 284.881C723.381 291.385 728.193 294.18 729.949 300.466C730.923 303.952 733.331 306.164 731.96 309.515C730.556 312.943 724.698 310.921 723.916 314.542C723.212 317.804 726.946 318.896 727.938 322.083C729.513 327.144 729.513 330.595 727.938 335.656C726.946 338.843 724.127 339.866 723.916 343.197C723.626 347.767 730.409 348.695 729.949 353.251C729.736 355.355 729.57 356.935 727.938 358.278C725.062 360.646 722.43 354.107 718.889 355.262C715.417 356.395 716.701 361.332 713.359 362.803C707.573 365.35 703.765 358.531 700.288 353.251C698.203 350.084 696.08 347.931 696.769 344.202C697.427 340.642 702.166 340.728 702.802 337.164C703.38 333.924 699.621 332.343 700.288 329.121C700.698 327.141 702.158 326.512 702.802 324.596C703.927 321.246 701.659 318.891 702.802 315.547C703.542 313.381 705.361 312.763 705.818 310.52C707.012 304.656 699.627 303.103 694.256 300.466C690.067 298.409 685.664 301.048 682.693 297.449C680.389 294.658 681.955 291.789 680.682 288.4C678.403 282.333 666.931 279.764 671.131 274.827Z" fill="#FBBC05"/>
<path d="M1279.42 434.189C1286.35 434.712 1288.77 444.937 1294.5 451.5C1299.23 456.911 1301.5 458.5 1306 465C1309.05 469.408 1315.71 469.849 1318 465C1319.69 461.424 1318 462.454 1318 458.5C1318 445.246 1319.74 439.15 1318 427.151C1316.55 417.198 1309.28 411.555 1309.5 401.5C1309.66 394.144 1317.66 392.35 1318 385C1320 342.191 1316 317.5 1319.5 275.33C1317.51 275.621 1314.39 276.077 1314.39 276.077C1313.21 276.306 1312.15 276.5 1311.5 276.5C1309.9 276.5 1309.33 275.178 1308.5 273C1308.5 273 1290.59 269.22 1288.47 268.794C1283.54 267.804 1283.13 264.5 1278.42 262.762C1273.26 260.861 1268.36 262.762 1264.34 260.751C1260.7 257.9 1257.97 256.059 1254.79 252.707C1251.6 249.356 1246.32 252.053 1242.22 250.697C1236.94 248.951 1237.12 240.102 1231.66 241.145C1230.19 241.425 1229.49 240.498 1228.14 241.145C1213.56 248.143 1219.54 255.231 1210.55 256.226C1208.79 256.421 1207.68 257.125 1206.02 257.735C1202.73 258.946 1206.02 265.443 1202 265.778C1197.98 266.113 1193.74 265.363 1189.94 268.794C1187.26 271.214 1186.25 272.481 1185.41 275.33C1184.57 278.179 1177.98 278.57 1176.36 283.373C1175.49 285.979 1176.3 287.573 1174.86 289.909C1173.28 292.45 1170.82 290.703 1168.82 292.925C1166.53 295.473 1168.99 300.198 1165.81 301.471C1160.78 303.482 1146.2 297.449 1143.18 284.379C1142.05 279.475 1144.7 272.396 1139.66 272.313C1135.78 272.249 1133.48 282.764 1131.62 279.352C1128.6 273.822 1124.29 257.632 1125.59 252.707C1126.89 247.783 1130.23 244.728 1130.11 239.637C1129.96 232.823 1117.88 233.024 1120.06 226.566C1121.26 223.012 1128.36 225.072 1127.1 221.539C1125.95 218.309 1121.97 219.23 1118.55 219.528C1115.39 219.803 1114.1 220.835 1111.01 221.539L1110.92 221.558C1106.58 222.549 1104.16 223.1 1099.95 221.539C1093.94 219.308 1094.67 212.739 1088.89 209.976C1085.37 208.296 1077.83 207.53 1071.8 209.976C1066.51 212.121 1066.36 218.552 1060.74 219.528C1056.79 220.213 1054.45 216.147 1050.68 217.517C1047.94 218.516 1046.56 219.986 1045.15 222.544C1043.08 226.331 1047.15 229.774 1045.15 233.604C1043.41 236.948 1038.55 236.62 1038.12 238.631C1037.26 242.653 1047.34 238.627 1052.69 241.145C1061.32 245.199 1057.83 256.473 1065.77 261.756C1071.71 265.718 1076.31 265.618 1083.36 266.784C1095.38 268.769 1114.53 259.745 1114.53 265.778C1114.53 270.084 1111.1 272.528 1106.99 273.822C1102.54 275.224 1099.34 268.27 1095.43 270.805C1091.98 273.033 1096.51 280.86 1092.41 280.86C1087.38 280.86 1084.19 281.056 1079.34 279.352C1075.27 277.922 1073.09 271.054 1069.79 273.822C1068.03 275.297 1068.86 277.327 1067.78 279.352C1066.2 282.298 1062.73 282.579 1062.25 285.887C1061.34 292.106 1072.73 286.235 1077.83 289.909C1081.69 292.687 1083.36 294.936 1085.37 299.46C1087.03 303.193 1079.78 304.063 1080.85 308.007C1081.36 309.902 1081.22 310.427 1082.35 312.028C1085.41 316.339 1085.11 322.684 1090.4 322.585C1093.03 322.536 1093.01 321.635 1095.43 320.575C1099.23 318.899 1103.43 319.913 1104.98 316.05C1106.99 311.023 1106.81 308.507 1111.01 306.498C1117.53 303.381 1117.58 317.285 1124.58 319.066C1128.2 319.986 1130.99 317.064 1134.14 319.066C1139.66 322.585 1136.76 323.596 1143.18 327.613C1147.21 330.126 1155.74 326.868 1159.77 327.613C1163.25 328.256 1162.48 330.425 1165.81 331.634C1170.6 333.379 1173.22 329.54 1177.87 331.634C1187.93 336.159 1194.96 339.678 1204.01 342.191C1210.85 344.09 1211.48 350.654 1217.59 354.257C1223.68 357.852 1230.02 354.96 1234.68 360.289C1239.07 365.308 1235.43 371.069 1238.7 376.879C1242.38 383.417 1251.25 383.956 1251.27 391.458C1251.28 398.273 1237.1 397.589 1241.21 403.021C1243.69 406.288 1248.51 403.006 1251.27 406.037C1254.33 409.404 1254.79 414.08 1252.78 416.594C1251.51 418.172 1249.13 417.323 1247.25 416.594C1242.3 414.682 1238.68 414.118 1234.68 417.599C1232.36 419.618 1233.07 419.715 1231.16 422.124C1229.26 424.527 1226.4 424.362 1225.13 427.151C1223.9 429.83 1226.02 431.887 1225.13 434.692C1223.51 439.744 1212.56 436.703 1215.58 441.73C1218.59 446.757 1223.11 440.022 1228.65 440.725C1231.91 441.139 1234.85 439.551 1237.19 440.725C1239.54 441.898 1237.78 435.752 1241.21 435.697C1245.01 435.637 1241.15 443.519 1244.73 444.746C1247.21 445.594 1250.25 444.801 1250.77 442.233C1251.27 439.719 1243.06 430.87 1248.25 430.167C1251.87 429.678 1252.32 434.58 1255.79 435.697C1259.16 436.779 1261.6 434.297 1264.84 435.697C1266.9 436.584 1266.76 437.442 1268.86 438.211C1273.42 439.876 1274.59 433.824 1279.42 434.189Z" fill="#FBBC05"/>
</g>
<g filter="url(#filter2_d_40_369)">
<path d="M26.2973 49.472H61.6119V14.1574H26.2973V49.472Z" fill="black"/>
<path d="M393.462 213.101H428.777V177.786H393.462V213.101Z" fill="black"/>
<path d="M284.705 362.76H320.02V327.445H284.705V362.76Z" fill="black"/>
<path d="M302.667 385.708H337.982V350.393H302.667V385.708Z" fill="black"/>
<path d="M338.586 372.737H373.901V337.422H338.586V372.737Z" fill="black"/>
<path d="M358.575 394.839H393.889V359.524H358.575V394.839Z" fill="black"/>
<path d="M434.365 417.635H469.679V382.321H434.365V417.635Z" fill="black"/>
<path d="M506.206 426.615H541.521V391.3H506.206V426.615Z" fill="black"/>
<path d="M569.062 448.565H604.376V413.25H569.062V448.565Z" fill="black"/>
<path d="M697.014 335.463H732.329V300.149H697.014V335.463Z" fill="black"/>
<path d="M807.52 359.766H842.834V324.452H807.52V359.766Z" fill="black"/>
<path d="M764.306 313.692H799.621V278.378H764.306V313.692Z" fill="black"/>
<path d="M462.482 439.37H497.797V404.056H462.482V439.37Z" fill="black"/>
<path d="M789.56 177.182H824.875V141.868H789.56V177.182Z" fill="black"/>
<path d="M843.474 160.306H878.788V124.991H843.474V160.306Z" fill="black"/>
<path d="M972.145 292.918H1007.46V257.604H972.145V292.918Z" fill="black"/>
<path d="M1030.56 224.664H1065.87V189.349H1030.56V224.664Z" fill="black"/>
<path d="M103.122 98.3609H138.437V63.0463H103.122V98.3609Z" fill="black"/>
<path d="M146.803 230.567H182.117V195.252H146.803V230.567Z" fill="black"/>
<path d="M234.877 239.473H270.191V204.159H234.877V239.473Z" fill="black"/>
<path d="M177.479 190.983H212.794V155.669H177.479V190.983Z" fill="black"/>
<path d="M262.585 297.859H297.899V262.545H262.585V297.859Z" fill="black"/>
<path d="M190.345 293.9H225.659V258.586H190.345V293.9Z" fill="black"/>
<path d="M298.674 267.975H333.989V232.661H298.674V267.975Z" fill="black"/>
</g>
<defs>
<filter id="filter0_d_40_369" x="997.77" y="47.288" width="328.67" height="87.696" filterUnits="userSpaceOnUse" color-interpolation-filters="sRGB">
<feFlood flood-opacity="0" result="BackgroundImageFix"/>
<feColorMatrix in="SourceAlpha" type="matrix" values="0 0 0 0 0 0 0 0 0 0 0 0 0 0 0 0 0 0 127 0" result="hardAlpha"/>
<feOffset dx="3" dy="3"/>
<feGaussianBlur stdDeviation="2.5"/>
<feComposite in2="hardAlpha" operator="out"/>
<feColorMatrix type="matrix" values="0 0 0 0 0 0 0 0 0 0 0 0 0 0 0 0 0 0 0.25 0"/>
<feBlend mode="normal" in2="BackgroundImageFix" result="effect1_dropShadow_40_369"/>
<feBlend mode="normal" in="SourceGraphic" in2="effect1_dropShadow_40_369" result="shape"/>
</filter>
<filter id="filter1_d_40_369" x="0" y="13.9153" width="1319.5" height="464.558" filterUnits="userSpaceOnUse" color-interpolation-filters="sRGB">
<feFlood flood-opacity="0" result="BackgroundImageFix"/>
<feColorMatrix in="SourceAlpha" type="matrix" values="0 0 0 0 0 0 0 0 0 0 0 0 0 0 0 0 0 0 127 0" result="hardAlpha"/>
<feOffset dy="10"/>
<feComposite in2="hardAlpha" operator="out"/>
<feColorMatrix type="matrix" values="0 0 0 0 0 0 0 0 0 0.329412 0 0 0 0 0.47451 0 0 0 1 0"/>
<feBlend mode="normal" in2="BackgroundImageFix" result="effect1_dropShadow_40_369"/>
<feBlend mode="normal" in="SourceGraphic" in2="effect1_dropShadow_40_369" result="shape"/>
</filter>
<filter id="filter2_d_40_369" x="26.2972" y="13.1574" width="1048.58" height="442.408" filterUnits="userSpaceOnUse" color-interpolation-filters="sRGB">
<feFlood flood-opacity="0" result="BackgroundImageFix"/>
<feColorMatrix in="SourceAlpha" type="matrix" values="0 0 0 0 0 0 0 0 0 0 0 0 0 0 0 0 0 0 127 0" result="hardAlpha"/>
<feOffset dx="5" dy="3"/>
<feGaussianBlur stdDeviation="2"/>
<feComposite in2="hardAlpha" operator="out"/>
<feColorMatrix type="matrix" values="0 0 0 0 0 0 0 0 0 0 0 0 0 0 0 0 0 0 0.25 0"/>
<feBlend mode="normal" in2="BackgroundImageFix" result="effect1_dropShadow_40_369"/>
<feBlend mode="normal" in="SourceGraphic" in2="effect1_dropShadow_40_369" result="shape"/>
</filter>
</defs>
</svg>
