<svg width="405" height="291" viewBox="0 0 405 291" fill="none" xmlns="http://www.w3.org/2000/svg">
<g opacity="0.5">
<path d="M-8.33786 119.884L-25.463 84.8758L28.9006 49.1087L-4.52232 4.7342M-8.63525 427.409L47.2865 408.982L-26.4577 373.32L-8.63525 427.409ZM14.5114 309.515L-7.78058 268.078L30.4719 283.93L14.5114 309.515ZM-52.315 259.378L-25.9051 213.073L-71.7988 200.248L-52.315 259.378Z" stroke="white" stroke-width="9.65235" stroke-linecap="round" stroke-linejoin="round"/>
<path d="M231.293 335.14L152.778 311.213L225.557 228.288L231.293 335.14Z" stroke="white" stroke-width="9.65235" stroke-linecap="round" stroke-linejoin="round"/>
<path d="M399.632 294.389L304.29 325.805L316.887 257.628L399.632 294.389Z" stroke="white" stroke-width="9.65235" stroke-linecap="round" stroke-linejoin="round"/>
<path d="M175.645 180.822L220.696 172.583" stroke="white" stroke-width="9.65235" stroke-linecap="round" stroke-linejoin="round"/>
<path fill-rule="evenodd" clip-rule="evenodd" d="M77.4223 252.082C75.7148 253.778 75.7053 256.537 77.401 258.244C79.0968 259.952 81.8557 259.961 83.5632 258.266L99.5684 242.371L118.772 261.184C120.491 262.868 123.25 262.84 124.934 261.121C126.618 259.402 126.589 256.643 124.87 254.959L105.752 236.229L124.352 217.757C126.059 216.062 126.069 213.303 124.373 211.595C122.677 209.888 119.918 209.878 118.211 211.574L99.5267 230.13L74.0588 205.179C72.3398 203.494 69.581 203.523 67.8969 205.242C66.2128 206.961 66.241 209.72 67.9601 211.404L93.3427 236.271L77.4223 252.082Z" fill="white"/>
<ellipse cx="336.051" cy="189.806" rx="25.0961" ry="27.5092" transform="rotate(-108.237 336.051 189.806)" stroke="white" stroke-width="9.65235" stroke-linecap="round" stroke-linejoin="round"/>
<ellipse cx="6.04912" cy="182.943" rx="21.9016" ry="23.5608" transform="rotate(-108.237 6.04912 182.943)" stroke="white" stroke-width="6.63685" stroke-linecap="round" stroke-linejoin="round"/>
</g>
</svg>
