<svg width="480" height="361" viewBox="0 0 480 361" fill="none" xmlns="http://www.w3.org/2000/svg">
<g opacity="0.3">
<path d="M94.5279 239.883L77.4028 274.892L131.766 310.659L98.3434 355.034M94.2305 -67.6406L150.152 -49.2141L76.4081 -13.5524L94.2305 -67.6406ZM117.377 50.2532L95.0851 91.6895L133.338 75.838L117.377 50.2532ZM50.5507 100.39L76.9607 146.695L31.0669 159.52L50.5507 100.39Z" stroke="white" stroke-width="9.65235" stroke-linecap="round" stroke-linejoin="round"/>
<path d="M334.159 24.628L255.643 48.5545L328.423 131.48L334.159 24.628Z" stroke="white" stroke-width="9.65235" stroke-linecap="round" stroke-linejoin="round"/>
<path d="M442.764 69.9868L382.107 50L390.122 93.3743L442.764 69.9868Z" stroke="white" stroke-width="8" stroke-linecap="round" stroke-linejoin="round"/>
<path d="M278.511 178.946L323.561 187.185" stroke="white" stroke-width="9.65235" stroke-linecap="round" stroke-linejoin="round"/>
<path fill-rule="evenodd" clip-rule="evenodd" d="M180.288 107.686C178.58 105.99 178.571 103.231 180.267 101.523C181.962 99.816 184.721 99.8065 186.429 101.502L202.434 117.397L221.637 98.5837C223.356 96.8995 226.115 96.9278 227.799 98.6468C229.483 100.366 229.455 103.125 227.736 104.809L208.618 123.539L227.217 142.01C228.925 143.706 228.935 146.465 227.239 148.173C225.543 149.88 222.784 149.89 221.077 148.194L202.392 129.638L176.924 154.589C175.205 156.273 172.447 156.245 170.763 154.526C169.078 152.807 169.107 150.048 170.826 148.364L196.208 123.497L180.288 107.686Z" fill="white"/>
<ellipse cx="25.0961" cy="27.5092" rx="25.0961" ry="27.5092" transform="matrix(-0.312954 0.949768 0.949768 0.312954 388.709 160)" stroke="white" stroke-width="9.65235" stroke-linecap="round" stroke-linejoin="round"/>
<ellipse cx="31.8528" cy="30.8875" rx="31.8528" ry="30.8875" transform="matrix(-0.312954 0.949768 0.949768 0.312954 169.713 -42.2611)" stroke="white" stroke-width="9.65235" stroke-linecap="round" stroke-linejoin="round"/>
<ellipse cx="21.9016" cy="23.5608" rx="21.9016" ry="23.5608" transform="matrix(-0.312954 0.949768 0.949768 0.312954 93.3917 148.65)" stroke="white" stroke-width="6.63685" stroke-linecap="round" stroke-linejoin="round"/>
</g>
</svg>
